<svg width="50" height="20" viewBox="0 0 50 20" fill="none" xmlns="http://www.w3.org/2000/svg">
<g clip-path="url(#clip0_1414_292)">
<path d="M0.000976562 20H49.9974V0H0.000976562V20Z" fill="black"/>
<path d="M0.580566 19.6413H49.4652V0.364014H0.580566V19.6413Z" fill="white"/>
<path d="M11.3634 11.0423L12.3092 11.7254L13.2864 11.0468H14.0693V11.2565L12.8447 12.1097L14.0693 13.0219V11.0468H16.2797C16.6978 11.0468 17.3108 11.1686 17.3108 11.7147C17.3108 12.4807 16.5042 12.4898 16.0625 12.4898H14.9146V13.2316H13.2785L12.279 12.5047L11.2551 13.2262H8.0019V11.0419H11.3634V11.0423V11.0423ZM21.3778 11.0423H24.1657V11.5132H22.231V11.9223H24.1119V12.3367H22.231V12.7693H24.1657V13.2266H21.3778V11.0423V11.0423ZM18.5676 13.232H17.7144V11.0472H19.932C20.3514 11.0472 20.9558 11.1644 20.9558 11.6321C20.9558 11.8963 20.8318 12.0907 20.3665 12.2372C20.7694 12.2665 20.925 12.4325 20.925 12.7833L20.9558 13.232H20.1256L20.1026 12.8316C20.0954 12.6467 19.9786 12.4613 19.6846 12.4613H18.5676V13.232V13.232ZM29.5198 11.8938C30.5692 11.9268 30.6558 12.2566 30.6558 12.6075C30.6558 13.0169 30.1209 13.2365 29.5624 13.2365H27.7714V12.7689H29.1673C29.4043 12.7689 29.7567 12.7689 29.7567 12.5583C29.7567 12.4585 29.6943 12.3953 29.4423 12.378C29.2465 12.366 29.0502 12.3575 28.8536 12.3524C27.9066 12.3367 27.6867 12.0407 27.6867 11.68C27.6867 11.2705 28.1442 11.0464 28.7027 11.0464H30.4937V11.5149H29.1831C28.8851 11.5174 28.5629 11.4926 28.5629 11.7052C28.5629 11.8389 28.7224 11.8657 28.9232 11.8785C28.9928 11.8789 29.4581 11.8938 29.5198 11.8938V11.8938ZM26.3249 11.8938C27.3737 11.9268 27.461 12.2566 27.461 12.6075C27.461 13.0169 26.9254 13.2365 26.3676 13.2365H24.5759V12.7689H25.9718C26.2081 12.7689 26.5619 12.7689 26.5619 12.5583C26.5619 12.4585 26.4995 12.3953 26.2475 12.378C26.1346 12.3681 25.7198 12.3532 25.6588 12.3524C24.7118 12.3367 24.4919 12.0407 24.4919 11.68C24.4919 11.2705 24.9493 11.0464 25.5072 11.0464H27.2989V11.5149H25.9883C25.6896 11.5174 25.3681 11.4926 25.3681 11.7052C25.3681 11.8389 25.5269 11.8657 25.729 11.8785C25.7979 11.8789 26.2632 11.8938 26.3249 11.8938V11.8938ZM15.0853 9.47666H14.2321V7.29191H16.4497C16.8684 7.29191 17.4742 7.40913 17.4742 7.87679C17.4742 8.14055 17.3501 8.33578 16.8848 8.4819C17.2878 8.51121 17.4433 8.67714 17.4433 9.02799L17.4742 9.47666H16.6446L16.621 9.07669C16.6131 8.89136 16.4976 8.70644 16.2023 8.70644H15.0859V9.47666H15.0853V9.47666ZM17.9086 9.47666H18.7612V7.28943H17.9086V9.47666ZM10.9559 7.29191H13.7431V7.76245H11.8104V8.17233H13.69V8.58716H11.8104V9.01849H13.7431V9.47666H10.9559V7.29191V7.29191ZM4.73094 9.47666H6.44846V7.85533L7.58778 9.47666H8.36352L9.52975 7.88216V9.47666H10.3823V7.29191H9.02178L7.97499 8.75763L6.93214 7.29191H5.59462V9.39617L4.10549 7.29191H2.97798L1.45801 9.47666H2.35778L2.69053 8.98919H4.39229L4.73094 9.47666V9.47666ZM23.6689 8.99042H21.9678L21.6344 9.4779H20.5095C19.5638 9.4779 19.1444 8.97928 19.1648 8.37458C19.1937 7.47724 20.037 7.29067 20.4249 7.29067H21.5379V7.76617H21.0109C20.4446 7.76617 20.0029 7.80332 20.0029 8.31514V8.47365C20.0068 8.85875 20.3277 8.94997 20.5332 8.9768C20.5837 8.98423 20.6769 8.98712 20.711 8.98547L21.0798 8.98423L22.2546 7.29191H23.3834L24.8371 9.34251V7.29067H26.0965L27.5351 8.80344V7.29067H28.3877V9.4779H27.2247L25.6896 7.87803V9.4779H24.0069L23.6689 8.99042V8.99042Z" fill="#00ACEC"/>
<path d="M30.5012 10.7063V0.981567H1.53174V8.50128L2.6179 6.96085H4.4634L5.0685 7.87718V6.96085H7.3163L7.99885 7.8681L8.66564 6.96085H16.5904C16.9002 6.96085 17.3189 7.02937 17.5059 7.24359V6.96085H19.165V7.2923C19.3823 7.10738 19.7078 6.96085 20.3431 6.96085H23.7243L24.3445 7.84788V6.96085H26.3455L27.0583 7.73148V6.96085H28.888V9.80808H26.9191L26.0968 8.96976V9.80808H23.6002L23.1973 9.25209H22.4058L22.0337 9.80808H20.4671C20.1258 9.7891 19.3357 9.70077 19.165 9.36973V9.80808H16.1566V9.1844C16.1566 9.09607 16.0325 8.98916 15.8619 8.98916H15.5364V9.80808H9.13095V9.16459L8.65055 9.80808H7.34781L6.85165 9.15468V9.80808H4.29276L3.95149 9.30121H3.12916L2.77279 9.80808H1.53174V19.0057H30.5012V13.3686C30.3463 13.4763 30.0982 13.5638 29.7261 13.5638H27.3057V13.3492C27.1199 13.4763 26.8568 13.5638 26.4374 13.5638H19.6146V12.969C19.5988 12.8906 19.6612 12.7251 19.3199 12.7251H19.041V13.5638H17.2263V12.5975C17.0399 12.7936 16.6376 12.8027 16.3738 12.8126H15.4117V13.5638H12.9926L12.2943 13.0272L11.5501 13.5638H7.441V10.7063H11.6124L12.3409 11.223L13.0858 10.7063H16.3889C16.6212 10.7153 17.0629 10.7839 17.2263 10.9399V10.7063H20.049C20.2971 10.7063 20.7775 10.7739 20.9797 10.9787V10.7063H24.5151V10.9593C24.7008 10.8037 24.9962 10.7063 25.4451 10.7063H27.7093V10.9502C27.8799 10.7938 28.3301 10.7063 28.594 10.7063H30.5012V10.7063ZM38.4738 10.4578C38.4738 10.8231 36.2628 10.4202 36.2628 11.3085C36.2628 11.7142 36.7845 11.8979 37.3712 11.8979C37.8339 11.8979 38.189 11.8376 38.5394 11.6325L38.6654 11.8414H39.7805C39.7168 11.7654 39.707 11.6663 39.707 11.5549V10.641C39.707 10.1746 39.6177 9.83161 38.1476 9.83161C36.9204 9.83161 36.4518 10.0739 36.4518 10.4875H37.6377C37.6672 10.3199 37.8989 10.298 38.0708 10.298C38.2021 10.298 38.4738 10.3166 38.4738 10.4578V10.4578ZM44.8897 11.578V11.8393H45.9976V9.15386H44.7657V10.0826C44.5038 9.88857 44.2315 9.82914 43.8403 9.82914C43.0987 9.82914 42.5238 10.2502 42.5238 10.8994C42.5238 11.4513 42.9983 11.895 43.9348 11.895C44.3332 11.895 44.5997 11.817 44.8897 11.578V11.578ZM42.2042 10.5015V9.84028C42.151 9.83657 42.0972 9.82914 42.0434 9.82914C41.5643 9.82914 41.2611 9.97443 41.0891 10.2807H41.0773V9.88527H39.957V11.8389H41.1896V11.0695C41.1896 10.6481 41.4449 10.4986 41.9489 10.4986L42.2042 10.5015V10.5015ZM34.8439 10.1754C34.8019 9.89642 34.5229 9.73585 34.0845 9.73585C33.5923 9.73585 33.2957 10.0008 33.2957 10.5189C33.2957 10.8957 33.4263 11.2495 34.137 11.2495C34.5886 11.2495 34.8019 11.0526 34.8557 10.795H36.2011C36.0777 11.4884 35.2882 11.9053 34.1626 11.9053C32.7516 11.9053 31.8971 11.3621 31.8971 10.4887C31.8971 9.61986 32.8336 9.07915 34.0261 9.07915C35.3302 9.07915 36.06 9.48572 36.1728 10.175H34.8439V10.1754V10.1754Z" fill="#00ACEC"/>
<path d="M14.9156 12.042H15.9782C16.3266 12.042 16.4507 11.9148 16.4507 11.7687C16.4507 11.6614 16.3385 11.5182 15.9814 11.5182H14.9156V12.042ZM10.7902 11.5132H8.85606V11.9223H10.7357V12.3367H8.85606V12.7692H10.8217L11.7602 12.1101L10.9299 11.5153L10.7902 11.5132ZM18.5679 12.0131H19.6304C19.9789 12.0131 20.103 11.9152 20.103 11.7687C20.103 11.6614 19.9907 11.5182 19.6337 11.5182H18.5679V12.0131V12.0131ZM15.0856 8.25775H16.1481C16.4973 8.25775 16.6207 8.16034 16.6207 8.01381C16.6207 7.9069 16.5084 7.76243 16.1514 7.76243H15.0856V8.25775V8.25775ZM4.06316 8.51903H3.0249L3.53419 7.755L4.06316 8.51903ZM22.8095 7.75624L22.3015 8.51985H23.3437L22.8095 7.75624Z" fill="white"/>
<path d="M48.2917 12.4377L37.856 19.0007H39.3379L48.2917 13.3698V12.4377Z" fill="#3B4095"/>
<path d="M48.2919 14.2742L40.7773 19.0007H42.2579L48.2919 15.2066V14.2742Z" fill="#00ACEC"/>
<path d="M48.2918 16.111L43.6958 19.0007H45.179L48.2918 17.0426V16.111Z" fill="#6CB35E"/>
<path d="M31.561 17.9671C31.5615 17.8308 31.6046 17.6959 31.688 17.5701C31.7713 17.4443 31.8933 17.3301 32.0469 17.2339C32.2005 17.1378 32.3827 17.0616 32.5831 17.0098C32.7835 16.958 32.9982 16.9315 33.2149 16.9319C33.4311 16.9318 33.6452 16.9585 33.845 17.0105C34.0448 17.0625 34.2263 17.1387 34.3792 17.2349C34.532 17.331 34.6533 17.4452 34.7359 17.5708C34.8186 17.6965 34.861 17.8311 34.8609 17.9671C34.8618 18.1035 34.82 18.2386 34.7377 18.3648C34.6554 18.4909 34.5343 18.6057 34.3814 18.7023C34.2285 18.799 34.0467 18.8757 33.8466 18.9281C33.6464 18.9805 33.4317 19.0076 33.2149 19.0077C32.9976 19.0078 32.7823 18.981 32.5815 18.9288C32.3807 18.8765 32.1983 18.7999 32.0446 18.7032C31.891 18.6066 31.7692 18.4918 31.6862 18.3655C31.6032 18.2391 31.5607 18.1038 31.561 17.9671V17.9671Z" fill="#00ACEC"/>
<path d="M34.6619 17.9671C34.6619 17.8476 34.6246 17.7292 34.5519 17.6188C34.4792 17.5084 34.3726 17.4081 34.2382 17.3236C34.1038 17.2391 33.9442 17.1721 33.7686 17.1264C33.593 17.0807 33.4048 17.0573 33.2147 17.0574C33.0244 17.0571 32.8359 17.0803 32.6599 17.1259C32.4839 17.1715 32.3239 17.2384 32.1891 17.3229C32.0544 17.4074 31.9474 17.5078 31.8744 17.6184C31.8014 17.7289 31.7638 17.8474 31.7637 17.9671C31.7637 18.2088 31.9163 18.4406 32.1881 18.6115C32.4599 18.7825 32.8284 18.8785 33.2128 18.8785C33.5971 18.8785 33.9657 18.7825 34.2374 18.6115C34.5092 18.4406 34.6619 18.2088 34.6619 17.9671V17.9671Z" fill="white"/>
<path d="M34.0351 18.5487H33.768L33.2396 18.0134H32.8262V18.5487H32.6011V17.3881H33.4044C33.5599 17.3881 33.7155 17.3938 33.8539 17.4454C33.9924 17.4946 34.0607 17.5977 34.0607 17.6952C34.0607 17.9238 33.8067 18.008 33.4779 18.0134L34.0351 18.5487V18.5487Z" fill="#00ACEC"/>
<path d="M33.1724 17.902C33.4316 17.902 33.8332 17.9292 33.8332 17.6923C33.8332 17.5132 33.5825 17.4917 33.3535 17.4917H32.8271V17.902H33.1724ZM38.4739 10.9762C38.4772 11.3419 38.2987 11.4575 37.8662 11.4575C37.6227 11.4575 37.4744 11.3902 37.4744 11.2936C37.475 11.0394 38.0716 11.0992 38.4739 10.9762V10.9762ZM44.8071 10.8809C44.8071 11.1079 44.6713 11.3353 44.244 11.3353C43.8417 11.3353 43.759 11.0972 43.759 10.8916C43.759 10.6762 43.8712 10.4293 44.2808 10.4293C44.689 10.4293 44.8071 10.6642 44.8071 10.8809Z" fill="white"/>
</g>
<defs>
<clipPath id="clip0_1414_292">
<rect width="50" height="20" fill="white"/>
</clipPath>
</defs>
</svg>
