<svg width="50" height="25" viewBox="0 0 40 30" fill="none" xmlns="http://www.w3.org/2000/svg">
<g clip-path="url(#clip0_1420_330)">
<path fill-rule="evenodd" clip-rule="evenodd" d="M0 0H40V30H0V0Z" fill="white"/>
<path fill-rule="evenodd" clip-rule="evenodd" d="M3.41087 11.6261H1.76465V15.9234H3.3895C4.26626 15.9234 4.88611 15.779 5.44204 15.4263C6.08348 15.0256 6.48959 14.4161 6.48959 13.7747C6.48959 12.5081 5.22809 11.6261 3.41087 11.6261V11.6261ZM4.71511 14.8651C4.35175 15.0897 3.90248 15.2019 3.17576 15.2019H2.87652V12.3637H3.17576C3.90248 12.3637 4.33017 12.4599 4.71511 12.7003C5.09985 12.9568 5.33517 13.3579 5.33517 13.7747C5.33497 14.1916 5.09985 14.6086 4.71511 14.8651ZM7.00277 15.9236H8.11444V11.6261H7.00277V15.9236ZM10.851 13.2777C10.1668 13.0854 9.97441 12.9732 9.97441 12.7325C9.97441 12.46 10.3378 12.2677 10.8082 12.2677C11.1502 12.2677 11.4283 12.3638 11.7061 12.6043L12.3048 12.0432C11.813 11.7225 11.2359 11.5622 10.6158 11.5622C9.58967 11.5622 8.81999 12.0913 8.81999 12.7968C8.81999 13.3901 9.18335 13.6788 10.2311 13.9674C10.6802 14.0796 10.8939 14.1597 11.0008 14.2078C11.2359 14.3202 11.3428 14.4804 11.3428 14.6568C11.3428 15.0097 10.9794 15.2662 10.4662 15.2662C9.95303 15.2662 9.50417 15.0578 9.24748 14.6889L8.54213 15.2181C9.05532 15.7791 9.67517 16.0358 10.5303 16.0358C11.6848 16.0358 12.4974 15.4585 12.4974 14.6248C12.4972 13.9352 12.1124 13.6304 10.851 13.2777V13.2777ZM12.8394 13.7747C12.8394 15.0414 14.165 16.0196 15.8751 16.0196C16.3456 16.0196 16.7731 15.9553 17.2649 15.779V14.7848C16.8158 15.1214 16.4311 15.2659 15.9179 15.2659C14.8062 15.2659 13.9938 14.6405 13.9938 13.7745C13.9938 12.9568 14.8276 12.2994 15.8751 12.2994C16.4097 12.2994 16.8158 12.4437 17.2649 12.7805V11.8023C16.7944 11.6098 16.3883 11.5298 15.8965 11.5298C14.2075 11.5299 12.8394 12.5402 12.8394 13.7747V13.7747Z" fill="black"/>
<path fill-rule="evenodd" clip-rule="evenodd" d="M20.7499 11.5299C19.0607 11.5299 17.6924 12.5241 17.6924 13.7426C17.6924 15.0576 18.9966 16.0196 20.7499 16.0196C22.4599 16.0196 23.8071 15.0414 23.8071 13.7747C23.8073 12.5241 22.4814 11.5299 20.7499 11.5299Z" fill="#DB8135"/>
<path fill-rule="evenodd" clip-rule="evenodd" d="M20.7499 11.5299C19.0607 11.5299 17.6924 12.5241 17.6924 13.7426C17.6924 15.0576 18.9966 16.0196 20.7499 16.0196C22.4599 16.0196 23.8071 15.0414 23.8071 13.7747C23.8073 12.5241 22.4814 11.5299 20.7499 11.5299ZM20.7499 13.7747H23.8071H20.7499Z" fill="#DB8135"/>
<path fill-rule="evenodd" clip-rule="evenodd" d="M20.7499 13.7747H23.8071C23.8071 12.524 22.4812 11.5299 20.7499 11.5299C19.0607 11.5299 17.6924 12.5241 17.6924 13.7426C17.6924 15.0576 18.9966 16.0196 20.7499 16.0196C22.4599 16.0196 23.8071 15.0414 23.8071 13.7747H20.7499Z" fill="#DB8135"/>
<path fill-rule="evenodd" clip-rule="evenodd" d="M20.7499 13.7747H23.8071C23.8071 12.524 22.4812 11.5299 20.7499 11.5299C19.0607 11.5299 17.6924 12.5241 17.6924 13.7426C17.6924 15.0576 18.9966 16.0196 20.7499 16.0196C22.4599 16.0196 23.8071 15.0414 23.8071 13.7747H20.7499Z" fill="#DB8137"/>
<path fill-rule="evenodd" clip-rule="evenodd" d="M20.7499 13.7747H23.8071C23.8071 12.524 22.4812 11.5299 20.7499 11.5299C19.0607 11.5299 17.6924 12.5241 17.6924 13.7426C17.6924 15.0576 18.9966 16.0196 20.7499 16.0196C22.4599 16.0196 23.8071 15.0414 23.8071 13.7747H20.7499Z" fill="#DC8337"/>
<path fill-rule="evenodd" clip-rule="evenodd" d="M20.7499 13.7747H23.8071C23.8071 12.524 22.4812 11.5299 20.7499 11.5299C19.0607 11.5299 17.6924 12.5241 17.6924 13.7426C17.6924 15.0576 18.9966 16.0196 20.7499 16.0196C22.4599 16.0196 23.8071 15.0414 23.8071 13.7747H20.7499Z" fill="#DC8539"/>
<path fill-rule="evenodd" clip-rule="evenodd" d="M20.7499 13.7747H23.8071C23.8071 12.524 22.4812 11.5299 20.7499 11.5299C19.0607 11.5299 17.6924 12.5241 17.6924 13.7426C17.6924 15.0576 18.9966 16.0196 20.7499 16.0196C22.4599 16.0196 23.8071 15.0414 23.8071 13.7747H20.7499Z" fill="#DC853A"/>
<path fill-rule="evenodd" clip-rule="evenodd" d="M20.7499 13.7747H23.8071C23.8071 12.524 22.4812 11.5299 20.7499 11.5299C19.0607 11.5299 17.6924 12.5241 17.6924 13.7426C17.6924 15.0576 18.9966 16.0196 20.7499 16.0196C22.4599 16.0196 23.8071 15.0414 23.8071 13.7747H20.7499Z" fill="#DC853C"/>
<path fill-rule="evenodd" clip-rule="evenodd" d="M20.7499 13.7747H23.8071C23.8071 12.524 22.4812 11.5299 20.7499 11.5299C19.0607 11.5299 17.6924 12.5241 17.6924 13.7426C17.6924 15.0576 18.9966 16.0196 20.7499 16.0196C22.4599 16.0196 23.8071 15.0414 23.8071 13.7747H20.7499Z" fill="#DD873E"/>
<path fill-rule="evenodd" clip-rule="evenodd" d="M20.7499 13.7747H23.8071C23.8071 12.524 22.4812 11.5299 20.7499 11.5299C19.0607 11.5299 17.6924 12.5241 17.6924 13.7426C17.6924 15.0576 18.9966 16.0196 20.7499 16.0196C22.4599 16.0196 23.8071 15.0414 23.8071 13.7747H20.7499Z" fill="#DD873E"/>
<path fill-rule="evenodd" clip-rule="evenodd" d="M20.7499 13.7747H23.8071C23.8071 12.524 22.4812 11.5299 20.7499 11.5299C19.0607 11.5299 17.6924 12.5241 17.6924 13.7426C17.6924 15.0576 18.9966 16.0196 20.7499 16.0196C22.4599 16.0196 23.8071 15.0414 23.8071 13.7747H20.7499Z" fill="#DD883F"/>
<path fill-rule="evenodd" clip-rule="evenodd" d="M20.7499 13.7747H23.8071C23.8071 12.524 22.4812 11.5299 20.7499 11.5299C19.0607 11.5299 17.6924 12.5241 17.6924 13.7426C17.6924 15.0576 18.9966 16.0196 20.7499 16.0196C22.4599 16.0196 23.8071 15.0414 23.8071 13.7747H20.7499Z" fill="#DD8841"/>
<path fill-rule="evenodd" clip-rule="evenodd" d="M20.7499 13.7747H23.8071C23.8071 12.524 22.4812 11.5299 20.7499 11.5299C19.0607 11.5299 17.6924 12.5241 17.6924 13.7426C17.6924 15.0576 18.9966 16.0196 20.7499 16.0196C22.4599 16.0196 23.8071 15.0414 23.8071 13.7747H20.7499Z" fill="#DE8A41"/>
<path fill-rule="evenodd" clip-rule="evenodd" d="M20.7499 13.7747H23.8071C23.8071 12.524 22.4812 11.5299 20.7499 11.5299C19.0607 11.5299 17.6924 12.5241 17.6924 13.7426C17.6924 15.0576 18.9966 16.0196 20.7499 16.0196C22.4599 16.0196 23.8071 15.0414 23.8071 13.7747H20.7499Z" fill="#DE8A43"/>
<path fill-rule="evenodd" clip-rule="evenodd" d="M20.7499 13.7747H23.8071C23.8071 12.524 22.4812 11.5299 20.7499 11.5299C19.0607 11.5299 17.6924 12.5241 17.6924 13.7426C17.6924 15.0576 18.9966 16.0196 20.7499 16.0196C22.4599 16.0196 23.8071 15.0414 23.8071 13.7747H20.7499Z" fill="#DE8A44"/>
<path fill-rule="evenodd" clip-rule="evenodd" d="M20.7499 13.7747H23.8071C23.8071 12.524 22.4812 11.5299 20.7499 11.5299C19.0607 11.5299 17.6924 12.5241 17.6924 13.7426C17.6924 15.0576 18.9966 16.0196 20.7499 16.0196C22.4599 16.0196 23.8071 15.0414 23.8071 13.7747H20.7499Z" fill="#DE8C46"/>
<path fill-rule="evenodd" clip-rule="evenodd" d="M20.75 13.7747H23.8071H20.75ZM23.8073 13.7747C23.8073 13.7552 23.8069 13.7358 23.8061 13.7163V13.7156C23.8055 13.6965 23.8046 13.6774 23.8032 13.6583V13.6567C23.8019 13.638 23.8003 13.6194 23.7984 13.6007C23.7984 13.5999 23.7984 13.5991 23.798 13.5984C23.7963 13.58 23.7943 13.5617 23.792 13.5434C23.7916 13.5423 23.7916 13.5414 23.7916 13.5403C23.7891 13.5224 23.7863 13.5045 23.7831 13.4866V13.4861C23.7801 13.4691 23.777 13.4521 23.7737 13.4351C23.7733 13.4334 23.7729 13.4317 23.7729 13.43C23.7692 13.4132 23.7656 13.3965 23.7615 13.3797L23.7602 13.3741L23.7538 13.3468L23.7453 13.3146L23.7409 13.2992C23.7372 13.2862 23.7337 13.2731 23.7295 13.2602C23.7279 13.2541 23.7254 13.2482 23.7239 13.2421L23.7117 13.2057L23.6994 13.1714L23.6934 13.1546C23.6891 13.1427 23.6841 13.1308 23.6797 13.119L23.6725 13.1005C23.2939 12.1849 22.1557 11.5298 20.7502 11.5298C19.513 11.5298 18.4482 12.0633 17.9668 12.8275C17.7885 13.1199 17.6951 13.4373 17.6929 13.7588C17.6952 14.0366 17.756 14.2986 17.8666 14.5387L17.8761 14.5588L17.8803 14.5672C17.9982 14.8072 18.169 15.0307 18.3856 15.2283C18.9355 15.7205 19.773 16.0195 20.7502 16.0195C22.1395 16.0195 23.289 15.3739 23.6716 14.4522L23.6911 14.4027V14.4025C23.7469 14.2552 23.7828 14.1041 23.7982 13.9513L23.7986 13.951C23.8003 13.9317 23.8024 13.9123 23.8034 13.8928V13.8927C23.806 13.8534 23.8073 13.814 23.8073 13.7747V13.7747Z" fill="#DF8E47"/>
<path fill-rule="evenodd" clip-rule="evenodd" d="M20.75 13.7747H23.7858C23.7858 12.9025 23.1199 12.1475 22.1516 11.7702C21.7349 11.6164 21.2603 11.5299 20.75 11.5299C20.0932 11.5299 19.4858 11.6804 18.9876 11.9353C18.2183 12.3451 17.7139 13.0155 17.7139 13.7747C17.7139 14.6098 18.3244 15.3449 19.2262 15.7411C19.6689 15.92 20.1858 16.0196 20.75 16.0196C21.4614 16.0196 22.1095 15.8502 22.6241 15.5617C23.3297 15.1433 23.7858 14.4964 23.7858 13.7747H20.75Z" fill="#DF8E48"/>
<path fill-rule="evenodd" clip-rule="evenodd" d="M20.7498 13.7747H23.7426C23.7426 12.54 22.3958 11.5299 20.7498 11.5299C20.7238 11.5299 20.6983 11.5302 20.6728 11.5307H20.6707C19.0608 11.5623 17.7563 12.5599 17.7563 13.7747C17.7556 14.2447 17.9501 14.7033 18.3128 15.0866C18.6755 15.47 19.1884 15.7591 19.7803 15.9137C20.082 15.9827 20.4072 16.0197 20.7496 16.0197C21.1675 16.0197 21.5634 15.9611 21.9237 15.8544C22.4645 15.6789 22.9249 15.3884 23.2481 15.0188C23.5712 14.6492 23.7431 14.2168 23.7424 13.7748H20.7498V13.7747Z" fill="#DF8E4A"/>
<path fill-rule="evenodd" clip-rule="evenodd" d="M20.7499 13.7747H23.7215C23.7215 12.556 22.3957 11.5458 20.7499 11.5458C19.1035 11.5458 17.7778 12.556 17.7778 13.7747C17.777 14.0675 17.8533 14.3577 18.0023 14.6284C18.1514 14.8991 18.3703 15.1451 18.6465 15.3522C18.9226 15.5593 19.2506 15.7234 19.6115 15.8352C19.9725 15.947 20.3594 16.0042 20.7499 16.0035C21.1404 16.0042 21.5272 15.9469 21.8881 15.8351C22.249 15.7233 22.5769 15.5592 22.8531 15.3521C23.1292 15.145 23.348 14.899 23.497 14.6283C23.6461 14.3576 23.7224 14.0675 23.7215 13.7747H20.7499V13.7747Z" fill="#DF904A"/>
<path fill-rule="evenodd" clip-rule="evenodd" d="M20.75 13.7747H23.7002C23.7002 12.5561 22.3744 11.5779 20.75 11.5779C19.1249 11.5779 17.7993 12.5561 17.7993 13.7747C17.7993 14.9935 19.1249 15.9875 20.75 15.9875C22.3744 15.9875 23.7002 14.9933 23.7002 13.7747H20.75Z" fill="#E0914C"/>
<path fill-rule="evenodd" clip-rule="evenodd" d="M20.7501 13.7746H23.6788C23.6788 12.572 22.3534 11.594 20.7501 11.594C19.1464 11.594 17.8208 12.572 17.8208 13.7746C17.8208 14.9934 19.1464 15.9714 20.7501 15.9714C22.3536 15.9714 23.6788 14.9934 23.6788 13.7746H20.7501Z" fill="#E0914E"/>
<path fill-rule="evenodd" clip-rule="evenodd" d="M20.7498 13.7746H23.636C23.636 12.588 22.3531 11.6099 20.7498 11.6099C19.1461 11.6099 17.8633 12.588 17.8633 13.7746C17.8633 14.9772 19.1461 15.9553 20.7498 15.9553C22.3533 15.9553 23.636 14.9772 23.636 13.7746H20.7498Z" fill="#DF924F"/>
<path fill-rule="evenodd" clip-rule="evenodd" d="M20.7499 13.7747H23.6147C23.6147 12.5881 22.3318 11.6261 20.7499 11.6261C19.1676 11.6261 17.8848 12.5882 17.8848 13.7747C17.8848 14.9611 19.1676 15.9234 20.7499 15.9234C22.3318 15.9234 23.6147 14.9611 23.6147 13.7747H20.7499Z" fill="#E09351"/>
<path fill-rule="evenodd" clip-rule="evenodd" d="M20.7501 13.7747H23.5932C23.5932 12.6042 22.3104 11.6582 20.7501 11.6582C19.1891 11.6582 17.9062 12.6042 17.9062 13.7747C17.9062 14.9613 19.1891 15.9074 20.7501 15.9074C22.3106 15.9074 23.5932 14.9613 23.5932 13.7747H20.7501Z" fill="#E09552"/>
<path fill-rule="evenodd" clip-rule="evenodd" d="M20.7502 13.7747H23.5508C23.5508 12.6203 22.3105 11.6742 20.7502 11.6742C19.1892 11.6742 17.9277 12.6203 17.9277 13.7747C17.9277 14.9452 19.1892 15.8912 20.7502 15.8912C22.3107 15.8912 23.5508 14.9452 23.5508 13.7747H20.7502Z" fill="#E09554"/>
<path fill-rule="evenodd" clip-rule="evenodd" d="M20.7502 13.7746H23.5294C23.5301 13.5008 23.4587 13.2295 23.3193 12.9763C23.1799 12.7232 22.9752 12.4932 22.7169 12.2996C22.4587 12.1059 22.1521 11.9524 21.8146 11.8478C21.4771 11.7432 21.1154 11.6897 20.7502 11.6902C20.385 11.6896 20.0232 11.7432 19.6857 11.8477C19.3482 11.9523 19.0415 12.1058 18.7832 12.2995C18.525 12.4931 18.3203 12.7231 18.1808 12.9763C18.0414 13.2294 17.97 13.5007 17.9707 13.7746C17.9707 14.9292 19.2106 15.8753 20.7502 15.8753C22.2891 15.8753 23.5294 14.9292 23.5294 13.7746H20.7502Z" fill="#E09555"/>
<path fill-rule="evenodd" clip-rule="evenodd" d="M20.75 13.7747H23.5077C23.5077 12.6362 22.2678 11.7063 20.75 11.7063C19.2318 11.7063 17.9917 12.6362 17.9917 13.7747C17.9917 14.9292 19.2318 15.8433 20.75 15.8433C21.1124 15.8439 21.4715 15.7909 21.8065 15.6872C22.1415 15.5834 22.4458 15.4311 22.7021 15.2389C22.9583 15.0466 23.1614 14.8183 23.2997 14.5671C23.4379 14.3158 23.5086 14.0465 23.5077 13.7747H20.75Z" fill="#E19756"/>
<path fill-rule="evenodd" clip-rule="evenodd" d="M20.7499 13.7746H23.4862C23.4862 12.6523 22.2679 11.7383 20.7499 11.7383C19.2317 11.7383 18.0132 12.6523 18.0132 13.7746C18.0121 14.0444 18.0821 14.3117 18.2192 14.5611C18.3564 14.8105 18.5579 15.0371 18.8123 15.2278C19.0666 15.4186 19.3688 15.5697 19.7013 15.6726C20.0339 15.7754 20.3902 15.8279 20.7499 15.827C21.1096 15.8278 21.4659 15.7753 21.7984 15.6725C22.1309 15.5696 22.433 15.4185 22.6873 15.2277C22.9416 15.037 23.1431 14.8104 23.2802 14.561C23.4173 14.3116 23.4874 14.0444 23.4862 13.7746H20.7499Z" fill="#E19757"/>
<path fill-rule="evenodd" clip-rule="evenodd" d="M20.75 13.7747H23.4436C23.4436 12.6524 22.2462 11.7544 20.75 11.7544C19.2532 11.7544 18.0347 12.6524 18.0347 13.7747C18.0347 14.8972 19.2534 15.8111 20.75 15.8111C22.2464 15.8111 23.4436 14.897 23.4436 13.7747H20.75V13.7747Z" fill="#E29959"/>
<path fill-rule="evenodd" clip-rule="evenodd" d="M20.7497 13.7747H23.4219C23.4219 12.6683 22.2246 11.7704 20.7497 11.7704C19.2743 11.7704 18.0771 12.6683 18.0771 13.7747C18.0771 14.8811 19.2745 15.795 20.7497 15.795C22.2246 15.795 23.4219 14.8811 23.4219 13.7747H20.7497Z" fill="#E2995B"/>
<path fill-rule="evenodd" clip-rule="evenodd" d="M20.7499 13.7746H23.4005C23.4005 12.6844 22.2031 11.7864 20.7499 11.7864C19.2958 11.7864 18.0986 12.6844 18.0986 13.7746C18.0986 14.8811 19.296 15.7629 20.7499 15.7629C22.2033 15.7629 23.4005 14.8811 23.4005 13.7746H20.7499Z" fill="#E29B5B"/>
<path fill-rule="evenodd" clip-rule="evenodd" d="M20.75 13.7747H23.3796C23.3796 12.7003 22.2034 11.8185 20.75 11.8185C19.2959 11.8185 18.1201 12.7003 18.1201 13.7747C18.1201 14.8651 19.2961 15.7469 20.75 15.7469C22.2034 15.7469 23.3796 14.8649 23.3796 13.7747H20.75Z" fill="#E29B5D"/>
<path fill-rule="evenodd" clip-rule="evenodd" d="M20.7502 13.7746H23.3369C23.3375 13.5197 23.2711 13.2672 23.1413 13.0316C23.0116 12.796 22.8211 12.582 22.5807 12.4017C22.3404 12.2214 22.055 12.0785 21.7409 11.9812C21.4267 11.8839 21.0901 11.834 20.7502 11.8345C19.3175 11.8345 18.1631 12.7003 18.1631 13.7746C18.1631 14.849 19.3175 15.731 20.7502 15.731C22.1825 15.731 23.3369 14.849 23.3369 13.7746H20.7502Z" fill="#E39D5F"/>
<path fill-rule="evenodd" clip-rule="evenodd" d="M20.7498 13.7747H23.3149C23.3149 12.7164 22.1607 11.8506 20.7498 11.8506C19.3385 11.8506 18.1841 12.7164 18.1841 13.7747C18.1841 14.8491 19.3385 15.7149 20.7498 15.7149C22.1607 15.7149 23.3149 14.8491 23.3149 13.7747H20.7498Z" fill="#E39D61"/>
<path fill-rule="evenodd" clip-rule="evenodd" d="M20.7499 13.7747H23.2941C23.2941 12.7324 22.1608 11.8666 20.7499 11.8666C19.3386 11.8666 18.2056 12.7324 18.2056 13.7747C18.2056 14.833 19.3386 15.6828 20.7499 15.6828C22.1608 15.6828 23.2941 14.833 23.2941 13.7747H20.7499Z" fill="#E39F63"/>
<path fill-rule="evenodd" clip-rule="evenodd" d="M20.75 13.7746H23.2726C23.2726 12.7323 22.1394 11.8986 20.75 11.8986C19.3601 11.8986 18.2271 12.7323 18.2271 13.7746C18.2271 14.8169 19.3601 15.6668 20.75 15.6668C22.1394 15.6668 23.2726 14.8169 23.2726 13.7746H20.75Z" fill="#E39F63"/>
<path fill-rule="evenodd" clip-rule="evenodd" d="M20.7498 13.7747H23.2294C23.2294 12.7486 22.1181 11.9147 20.7498 11.9147C19.3812 11.9147 18.2695 12.7484 18.2695 13.7747C18.2695 14.817 19.3812 15.6507 20.7498 15.6507C22.1181 15.6507 23.2294 14.817 23.2294 13.7747H20.7498Z" fill="#E39F64"/>
<path fill-rule="evenodd" clip-rule="evenodd" d="M20.7499 13.7747H23.2085C23.2085 12.7646 22.1182 11.9307 20.7499 11.9307C19.3813 11.9307 18.291 12.7646 18.291 13.7747C18.291 14.8009 19.3813 15.6348 20.7499 15.6348C22.1182 15.6348 23.2085 14.8009 23.2085 13.7747H20.7499Z" fill="#E4A166"/>
<path fill-rule="evenodd" clip-rule="evenodd" d="M20.75 13.7746H23.1871C23.1871 12.7645 22.0968 11.9467 20.75 11.9467C19.4028 11.9467 18.3125 12.7644 18.3125 13.7746C18.3125 14.7849 19.4028 15.6027 20.75 15.6027C22.0968 15.6027 23.1871 14.7849 23.1871 13.7746H20.75Z" fill="#E4A367"/>
<path fill-rule="evenodd" clip-rule="evenodd" d="M20.7501 13.7747H23.1658C23.1658 12.7806 22.0755 11.9788 20.7501 11.9788C19.4243 11.9788 18.334 12.7804 18.334 13.7747C18.334 14.7849 19.4243 15.5866 20.7501 15.5866C22.0755 15.5866 23.1658 14.7849 23.1658 13.7747H20.7501Z" fill="#E4A369"/>
<path fill-rule="evenodd" clip-rule="evenodd" d="M20.7498 13.7746H23.123C23.123 12.7966 22.0752 11.9948 20.7498 11.9948C19.424 11.9948 18.3765 12.7966 18.3765 13.7746C18.3765 14.7688 19.424 15.5705 20.7498 15.5705C22.0752 15.5705 23.123 14.7688 23.123 13.7746H20.7498Z" fill="#E4A36A"/>
<path fill-rule="evenodd" clip-rule="evenodd" d="M20.7499 13.7747H23.1015C23.1024 13.5429 23.0422 13.3133 22.9243 13.099C22.8064 12.8847 22.6333 12.69 22.4147 12.5261C22.1962 12.3622 21.9366 12.2323 21.6509 12.1438C21.3652 12.0554 21.059 12.0102 20.7499 12.0109C20.4408 12.0102 20.1346 12.0553 19.8488 12.1437C19.5631 12.2321 19.3034 12.362 19.0848 12.5259C18.8663 12.6898 18.693 12.8846 18.5752 13.0989C18.4573 13.3132 18.3971 13.5429 18.398 13.7747C18.398 14.7529 19.4455 15.5546 20.7499 15.5546C22.0538 15.5546 23.1015 14.7529 23.1015 13.7747H20.7499Z" fill="#E5A56C"/>
<path fill-rule="evenodd" clip-rule="evenodd" d="M20.75 13.7746H23.0802C23.0802 12.8126 22.0325 12.027 20.75 12.027C19.467 12.027 18.4194 12.8126 18.4194 13.7746C18.4194 14.7368 19.467 15.5224 20.75 15.5224C22.0325 15.5224 23.0802 14.7368 23.0802 13.7746H20.75Z" fill="#E5A56C"/>
<path fill-rule="evenodd" clip-rule="evenodd" d="M20.7502 13.7747H23.0588C23.0588 12.8287 22.0114 12.0591 20.7502 12.0591C19.4885 12.0591 18.4409 12.8287 18.4409 13.7747C18.4409 14.7368 19.4885 15.5063 20.7502 15.5063C22.0114 15.5063 23.0588 14.7368 23.0588 13.7747H20.7502Z" fill="#E5A76E"/>
<path fill-rule="evenodd" clip-rule="evenodd" d="M20.7502 13.7746H23.0162C23.0162 12.8447 22.0115 12.0751 20.7502 12.0751C19.4885 12.0751 18.4839 12.8447 18.4839 13.7746C18.4839 14.7207 19.4887 15.4904 20.7502 15.4904C22.0115 15.4904 23.0162 14.7207 23.0162 13.7746H20.7502V13.7746Z" fill="#E5A770"/>
<path fill-rule="evenodd" clip-rule="evenodd" d="M20.75 13.7747H22.9945C22.9945 12.8448 21.9897 12.0912 20.75 12.0912C19.5097 12.0912 18.5049 12.8448 18.5049 13.7747C18.5049 14.7048 19.5097 15.4584 20.75 15.4584C21.9899 15.4584 22.9945 14.7048 22.9945 13.7747H20.75Z" fill="#E6A970"/>
<path fill-rule="evenodd" clip-rule="evenodd" d="M20.7501 13.7747H22.9732C22.9732 12.8608 21.9684 12.1072 20.7501 12.1072C19.5312 12.1072 18.5264 12.8608 18.5264 13.7747C18.5264 14.7048 19.5312 15.4422 20.7501 15.4422C21.9684 15.4422 22.9732 14.7048 22.9732 13.7747H20.7501Z" fill="#E6A972"/>
<path fill-rule="evenodd" clip-rule="evenodd" d="M20.7497 13.7747H22.9517C22.9517 12.8768 21.9681 12.1393 20.7497 12.1393C19.5308 12.1393 18.5474 12.8768 18.5474 13.7747C18.547 13.9917 18.6036 14.2066 18.7142 14.4072C18.8247 14.6077 18.9869 14.7899 19.1915 14.9433C19.3961 15.0968 19.6391 15.2184 19.9065 15.3013C20.1738 15.3842 20.4604 15.4267 20.7497 15.4263C21.039 15.4266 21.3255 15.3841 21.5929 15.3012C21.8602 15.2183 22.1031 15.0966 22.3077 14.9432C22.5122 14.7898 22.6744 14.6076 22.7849 14.4071C22.8954 14.2066 22.9521 13.9917 22.9517 13.7747H20.7497Z" fill="#E6AB74"/>
<path fill-rule="evenodd" clip-rule="evenodd" d="M20.75 13.7747H22.909C22.9097 13.5619 22.8544 13.351 22.7462 13.1543C22.638 12.9576 22.479 12.7789 22.2783 12.6284C22.0777 12.4779 21.8394 12.3586 21.5771 12.2774C21.3148 12.1962 21.0337 12.1547 20.75 12.1553C20.4662 12.1547 20.185 12.1961 19.9226 12.2773C19.6603 12.3585 19.4219 12.4777 19.2212 12.6282C19.0205 12.7787 18.8614 12.9575 18.7532 13.1542C18.6449 13.351 18.5896 13.5618 18.5903 13.7747C18.5903 14.6727 19.5524 15.4103 20.75 15.4103C21.9469 15.4103 22.909 14.6727 22.909 13.7747H20.75Z" fill="#E6AB75"/>
<path fill-rule="evenodd" clip-rule="evenodd" d="M20.7501 13.7746H22.8877C22.8877 12.8926 21.9258 12.1713 20.7501 12.1713C19.5741 12.1713 18.6118 12.8928 18.6118 13.7746C18.6118 14.6727 19.5739 15.3782 20.7501 15.3782C21.0311 15.3789 21.3095 15.3379 21.5693 15.2576C21.8291 15.1772 22.0652 15.0591 22.2639 14.9101C22.4626 14.761 22.62 14.584 22.727 14.3891C22.8341 14.1942 22.8887 13.9854 22.8877 13.7746H20.7501Z" fill="#E7AD77"/>
<path fill-rule="evenodd" clip-rule="evenodd" d="M20.7502 13.7747H22.8666C22.8666 12.9089 21.926 12.1874 20.7502 12.1874C19.5742 12.1874 18.6333 12.9089 18.6333 13.7747C18.6333 14.6567 19.574 15.3622 20.7502 15.3622C21.0285 15.3631 21.3042 15.3226 21.5615 15.2431C21.8188 15.1637 22.0526 15.0468 22.2494 14.8992C22.4461 14.7516 22.602 14.5762 22.7079 14.3832C22.8139 14.1902 22.8678 13.9834 22.8666 13.7747H20.7502Z" fill="#E7AD77"/>
<path fill-rule="evenodd" clip-rule="evenodd" d="M20.7498 13.7747H22.8449C22.8449 12.9089 21.9042 12.2192 20.7498 12.2192C19.5952 12.2192 18.6543 12.9089 18.6543 13.7747C18.6543 14.6406 19.595 15.3461 20.7498 15.3461C21.904 15.3461 22.8449 14.6406 22.8449 13.7747H20.7498Z" fill="#E8AF79"/>
<path fill-rule="evenodd" clip-rule="evenodd" d="M20.75 13.7747H22.8021C22.8021 12.9249 21.8828 12.2355 20.75 12.2355C19.6168 12.2355 18.6973 12.9249 18.6973 13.7747C18.6973 14.6407 19.6166 15.3302 20.75 15.3302C21.8828 15.3302 22.8021 14.6407 22.8021 13.7747H20.75Z" fill="#E8AF7B"/>
<path fill-rule="evenodd" clip-rule="evenodd" d="M20.7501 13.7747H22.7811C22.7811 12.941 21.883 12.2513 20.7501 12.2513C19.6169 12.2513 18.7188 12.941 18.7188 13.7747C18.7188 14.6245 19.6167 15.2981 20.7501 15.2981C21.883 15.2981 22.7811 14.6247 22.7811 13.7747H20.7501Z" fill="#E8B17B"/>
<path fill-rule="evenodd" clip-rule="evenodd" d="M20.7497 13.7746H22.7593C22.7596 13.5767 22.7078 13.3806 22.6069 13.1976C22.506 13.0147 22.358 12.8484 22.1714 12.7084C21.9847 12.5684 21.763 12.4574 21.5191 12.3818C21.2752 12.3061 21.0137 12.2673 20.7497 12.2675C20.4857 12.2672 20.2242 12.306 19.9803 12.3817C19.7363 12.4573 19.5146 12.5683 19.3279 12.7083C19.1412 12.8483 18.9931 13.0146 18.8922 13.1976C18.7913 13.3805 18.7395 13.5766 18.7397 13.7746C18.7394 13.9727 18.7912 14.1688 18.8921 14.3518C18.9931 14.5348 19.1411 14.701 19.3278 14.8411C19.5145 14.9811 19.7362 15.0921 19.9802 15.1678C20.2242 15.2434 20.4857 15.2822 20.7497 15.282C21.0137 15.2822 21.2752 15.2433 21.5191 15.1676C21.7631 15.0919 21.9847 14.9809 22.1714 14.8409C22.358 14.7009 22.506 14.5347 22.6069 14.3517C22.7078 14.1687 22.7596 13.9726 22.7593 13.7746H20.7497V13.7746Z" fill="#E8B17D"/>
<path fill-rule="evenodd" clip-rule="evenodd" d="M20.7499 13.7747H22.7379C22.7379 12.957 21.8401 12.2996 20.7499 12.2996C19.6594 12.2996 18.7612 12.957 18.7612 13.7747C18.7612 14.5924 19.6592 15.266 20.7499 15.266C21.8401 15.266 22.7379 14.5926 22.7379 13.7747H20.7499Z" fill="#E8B17E"/>
<path fill-rule="evenodd" clip-rule="evenodd" d="M20.7499 13.7747H22.6953C22.6953 12.973 21.8186 12.3156 20.7499 12.3156C20.4941 12.3149 20.2408 12.3522 20.0043 12.4253C19.7679 12.4984 19.553 12.6058 19.3722 12.7414C19.1914 12.8771 19.0481 13.0382 18.9506 13.2155C18.8531 13.3928 18.8034 13.5829 18.8042 13.7747C18.8042 14.5924 19.6594 15.2498 20.7499 15.2498C21.8186 15.2498 22.6953 14.5924 22.6953 13.7747H20.7499Z" fill="#E9B381"/>
<path fill-rule="evenodd" clip-rule="evenodd" d="M20.75 13.7746H22.6739C22.675 13.5849 22.6259 13.3969 22.5296 13.2215C22.4333 13.046 22.2916 12.8866 22.1128 12.7525C21.9339 12.6183 21.7214 12.5121 21.4875 12.4398C21.2536 12.3676 21.003 12.3308 20.75 12.3316C20.497 12.3308 20.2463 12.3675 20.0124 12.4398C19.7784 12.512 19.5659 12.6183 19.387 12.7524C19.2081 12.8866 19.0664 13.046 18.9701 13.2214C18.8737 13.3969 18.8247 13.5849 18.8257 13.7746C18.8247 13.9644 18.8737 14.1524 18.9701 14.3278C19.0664 14.5033 19.2081 14.6627 19.387 14.7969C19.5659 14.9311 19.7784 15.0373 20.0124 15.1096C20.2463 15.1818 20.497 15.2186 20.75 15.2178C21.003 15.2186 21.2536 15.1818 21.4875 15.1095C21.7214 15.0373 21.9339 14.931 22.1128 14.7968C22.2917 14.6626 22.4333 14.5032 22.5296 14.3278C22.6259 14.1524 22.675 13.9643 22.6739 13.7746H20.75Z" fill="#E9B381"/>
<path fill-rule="evenodd" clip-rule="evenodd" d="M20.7501 13.7747H22.6526C22.6526 12.989 21.7974 12.3477 20.7501 12.3477C19.7023 12.3477 18.8472 12.989 18.8472 13.7747C18.8472 14.5603 19.7023 15.2017 20.7501 15.2017C21.7974 15.2017 22.6526 14.5603 22.6526 13.7747H20.7501V13.7747Z" fill="#E9B583"/>
<path fill-rule="evenodd" clip-rule="evenodd" d="M20.7502 13.7746H22.6315C22.6315 13.005 21.776 12.3796 20.7502 12.3796C19.7238 12.3796 18.8687 13.005 18.8687 13.7746C18.8687 14.5603 19.7238 15.1856 20.7502 15.1856C21.776 15.1856 22.6315 14.5603 22.6315 13.7746H20.7502V13.7746Z" fill="#E9B584"/>
<path fill-rule="evenodd" clip-rule="evenodd" d="M20.7499 13.7747H22.5883C22.5883 13.0211 21.7757 12.3958 20.7499 12.3958C19.7236 12.3958 18.9111 13.0211 18.9111 13.7747C18.9111 14.5443 19.7236 15.1697 20.7499 15.1697C21.7757 15.1697 22.5883 14.5443 22.5883 13.7747H20.7499Z" fill="#EAB786"/>
<path fill-rule="evenodd" clip-rule="evenodd" d="M20.75 13.7747H22.5671C22.5673 13.5956 22.5204 13.4184 22.4292 13.2529C22.338 13.0875 22.2041 12.9372 22.0354 12.8106C21.8666 12.684 21.6662 12.5836 21.4457 12.5152C21.2251 12.4468 20.9887 12.4116 20.75 12.4117C19.745 12.4117 18.9326 13.0211 18.9326 13.7747C18.9326 14.5283 19.745 15.1376 20.75 15.1376C20.9887 15.1377 21.2251 15.1026 21.4457 15.0341C21.6662 14.9657 21.8666 14.8653 22.0354 14.7387C22.2041 14.6121 22.338 14.4618 22.4292 14.2964C22.5204 14.131 22.5673 13.9537 22.5671 13.7747H20.75Z" fill="#EAB788"/>
<path fill-rule="evenodd" clip-rule="evenodd" d="M20.7502 13.7746H22.5456C22.5456 13.0371 21.7334 12.4277 20.7502 12.4277C19.7665 12.4277 18.9541 13.0371 18.9541 13.7746C18.9541 14.5282 19.7665 15.1215 20.7502 15.1215C21.7334 15.1215 22.5456 14.5282 22.5456 13.7746H20.7502Z" fill="#EBB989"/>
<path fill-rule="evenodd" clip-rule="evenodd" d="M20.7498 13.7747H22.5243C22.5243 13.0531 21.7332 12.4598 20.7498 12.4598C19.7662 12.4598 18.9751 13.0531 18.9751 13.7747C18.9745 13.9496 19.02 14.1228 19.109 14.2845C19.198 14.4462 19.3287 14.5931 19.4936 14.7167C19.6585 14.8404 19.8544 14.9384 20.07 15.0051C20.2856 15.0719 20.5166 15.106 20.7498 15.1055C20.983 15.1059 21.214 15.0718 21.4295 15.0051C21.6451 14.9384 21.8409 14.8403 22.0058 14.7167C22.1707 14.593 22.3014 14.4461 22.3904 14.2845C22.4793 14.1228 22.5248 13.9496 22.5243 13.7747H20.7498V13.7747Z" fill="#EBB98A"/>
<path fill-rule="evenodd" clip-rule="evenodd" d="M20.75 13.7746H22.4815C22.4825 13.6039 22.4383 13.4347 22.3517 13.2768C22.265 13.1189 22.1375 12.9754 21.9765 12.8547C21.8155 12.734 21.6243 12.6383 21.4138 12.5733C21.2033 12.5083 20.9777 12.4751 20.75 12.4758C19.7877 12.4758 19.0181 13.0529 19.0181 13.7746C19.0181 14.4963 19.7877 15.0896 20.75 15.0896C21.7118 15.0896 22.4815 14.4963 22.4815 13.7746H20.75Z" fill="#EBBB8C"/>
<path fill-rule="evenodd" clip-rule="evenodd" d="M20.7501 13.7747H22.46C22.46 13.0692 21.6908 12.4919 20.7501 12.4919C19.8092 12.4919 19.0396 13.069 19.0396 13.7747C19.0396 14.4962 19.8092 15.0576 20.7501 15.0576C21.6908 15.0576 22.46 14.4964 22.46 13.7747H20.7501Z" fill="#EBBB8C"/>
<path fill-rule="evenodd" clip-rule="evenodd" d="M20.7498 13.7747H22.4387C22.4387 13.0852 21.6906 12.5079 20.7498 12.5079C19.8089 12.5079 19.0606 13.085 19.0606 13.7747C19.0593 13.9413 19.102 14.1065 19.1865 14.2606C19.2709 14.4148 19.3953 14.5548 19.5524 14.6726C19.7095 14.7905 19.8963 14.8837 20.1018 14.947C20.3073 15.0103 20.5276 15.0424 20.7498 15.0414C20.9719 15.0424 21.1922 15.0103 21.3977 14.947C21.6032 14.8837 21.7899 14.7905 21.9471 14.6726C22.1042 14.5548 22.2285 14.4148 22.3129 14.2606C22.3973 14.1065 22.4401 13.9413 22.4387 13.7747H20.7498Z" fill="#ECBD8F"/>
<path fill-rule="evenodd" clip-rule="evenodd" d="M20.7498 13.7747H22.4172C22.4172 13.0852 21.6691 12.54 20.7498 12.54C19.8303 12.54 19.082 13.0851 19.082 13.7747C19.082 14.4643 19.8303 15.0256 20.7498 15.0256C21.6691 15.0256 22.4172 14.4643 22.4172 13.7747H20.7498Z" fill="#ECBD90"/>
<path fill-rule="evenodd" clip-rule="evenodd" d="M20.7501 13.7747H22.3745C22.3746 13.6146 22.3327 13.4562 22.2511 13.3083C22.1695 13.1604 22.0498 13.0261 21.899 12.9129C21.7481 12.7997 21.569 12.7099 21.3719 12.6487C21.1747 12.5875 20.9634 12.556 20.7501 12.556C20.5366 12.5559 20.3253 12.5874 20.1281 12.6486C19.9309 12.7098 19.7517 12.7996 19.6008 12.9128C19.4499 13.0259 19.3302 13.1603 19.2485 13.3082C19.1669 13.4561 19.1249 13.6146 19.125 13.7747C19.125 14.4481 19.8519 15.0093 20.7501 15.0093C21.6478 15.0093 22.3745 14.4481 22.3745 13.7747H20.7501Z" fill="#ECBF93"/>
<path fill-rule="evenodd" clip-rule="evenodd" d="M20.7502 13.7746H22.3536C22.3536 13.1172 21.6265 12.572 20.7502 12.572C19.852 12.572 19.1465 13.1172 19.1465 13.7746C19.1465 14.4481 19.852 14.9772 20.7502 14.9772C21.6265 14.9772 22.3536 14.4481 22.3536 13.7746H20.7502Z" fill="#ECBF93"/>
<path fill-rule="evenodd" clip-rule="evenodd" d="M20.7498 13.7747H22.3317C22.3317 13.1173 21.6261 12.5881 20.7498 12.5881C19.873 12.5881 19.1675 13.1171 19.1675 13.7747C19.1675 14.4323 19.873 14.9613 20.7498 14.9613C20.9577 14.9616 21.1636 14.9312 21.3558 14.8717C21.5479 14.8122 21.7225 14.7248 21.8695 14.6145C22.0165 14.5043 22.133 14.3733 22.2123 14.2292C22.2916 14.0851 22.3322 13.9306 22.3317 13.7747H20.7498Z" fill="#EDC195"/>
<path fill-rule="evenodd" clip-rule="evenodd" d="M20.7499 13.7747H22.3104C22.3104 13.1333 21.6053 12.6204 20.7499 12.6204C19.8945 12.6204 19.189 13.1335 19.189 13.7747C19.189 14.4161 19.8945 14.9453 20.7499 14.9453C21.6051 14.9453 22.3104 14.4161 22.3104 13.7747H20.7499Z" fill="#EDC196"/>
<path fill-rule="evenodd" clip-rule="evenodd" d="M20.7501 13.7747H22.2679C22.2679 13.1494 21.5837 12.6362 20.7501 12.6362C19.9161 12.6362 19.2319 13.1494 19.2319 13.7747C19.2319 14.4161 19.9161 14.9292 20.7501 14.9292C21.5839 14.9292 22.2679 14.4161 22.2679 13.7747H20.7501V13.7747Z" fill="#EEC397"/>
<path fill-rule="evenodd" clip-rule="evenodd" d="M20.7498 13.7746H22.2462C22.2462 13.1653 21.5836 12.6523 20.7498 12.6523C19.9158 12.6523 19.253 13.1655 19.253 13.7746C19.2517 13.9223 19.2896 14.0687 19.3644 14.2053C19.4392 14.3419 19.5494 14.466 19.6887 14.5704C19.8279 14.6748 19.9934 14.7575 20.1756 14.8136C20.3577 14.8696 20.5529 14.898 20.7498 14.8971C20.9466 14.898 21.1418 14.8696 21.3239 14.8135C21.506 14.7574 21.6715 14.6748 21.8107 14.5704C21.9499 14.4659 22.06 14.3418 22.1348 14.2053C22.2096 14.0687 22.2474 13.9223 22.2462 13.7746H20.7498Z" fill="#EEC399"/>
<path fill-rule="evenodd" clip-rule="evenodd" d="M20.7499 13.7746H22.2247C22.2247 13.1653 21.5621 12.6682 20.7499 12.6682C19.9372 12.6682 19.2744 13.1653 19.2744 13.7746C19.2744 14.3841 19.9372 14.8811 20.7499 14.8811C21.5621 14.8811 22.2247 14.3841 22.2247 13.7746H20.7499Z" fill="#EEC59B"/>
<path fill-rule="evenodd" clip-rule="evenodd" d="M20.75 13.7747H22.2034C22.2034 13.1814 21.5408 12.7003 20.75 12.7003C19.9587 12.7003 19.2959 13.1814 19.2959 13.7747C19.2959 14.3842 19.9587 14.8651 20.75 14.8651C21.5408 14.8651 22.2034 14.3842 22.2034 13.7747H20.75Z" fill="#EEC69D"/>
<path fill-rule="evenodd" clip-rule="evenodd" d="M20.7502 13.7746H22.1611C22.1611 13.1975 21.541 12.7163 20.7502 12.7163C19.9589 12.7163 19.3389 13.1974 19.3389 13.7746C19.3389 14.3679 19.9589 14.849 20.7502 14.849C21.541 14.849 22.1611 14.3679 22.1611 13.7746H20.7502Z" fill="#EEC69F"/>
<path fill-rule="evenodd" clip-rule="evenodd" d="M20.7498 13.7747H22.1391C22.1395 13.6378 22.1038 13.5022 22.0341 13.3756C21.9644 13.2491 21.8621 13.1341 21.733 13.0372C21.6039 12.9404 21.4507 12.8636 21.2819 12.8113C21.1132 12.759 20.9324 12.7322 20.7498 12.7324C20.5672 12.7321 20.3863 12.7589 20.2175 12.8112C20.0487 12.8635 19.8953 12.9402 19.7662 13.0371C19.637 13.1339 19.5347 13.2489 19.4649 13.3755C19.3952 13.5021 19.3595 13.6378 19.3599 13.7747C19.3595 13.9117 19.3952 14.0474 19.4649 14.1739C19.5347 14.3005 19.637 14.4156 19.7662 14.5124C19.8953 14.6092 20.0487 14.686 20.2175 14.7383C20.3863 14.7906 20.5672 14.8173 20.7498 14.817C20.9324 14.8173 21.1132 14.7905 21.282 14.7382C21.4507 14.6859 21.604 14.6091 21.7331 14.5123C21.8622 14.4154 21.9645 14.3004 22.0342 14.1739C22.1038 14.0473 22.1395 13.9117 22.1391 13.7747H20.7498V13.7747Z" fill="#EFC89F"/>
<path fill-rule="evenodd" clip-rule="evenodd" d="M20.7499 13.7747H22.1183C22.1183 13.2136 21.4982 12.7485 20.7499 12.7485C20.0014 12.7485 19.3814 13.2136 19.3814 13.7747C19.3808 13.9096 19.4158 14.0432 19.4844 14.1679C19.553 14.2926 19.6538 14.4059 19.781 14.5013C19.9082 14.5967 20.0593 14.6723 20.2256 14.7237C20.3919 14.7751 20.5701 14.8014 20.7499 14.8009C20.9298 14.8013 21.108 14.7751 21.2742 14.7236C21.4405 14.6722 21.5915 14.5966 21.7187 14.5013C21.8459 14.4059 21.9467 14.2926 22.0152 14.1679C22.0838 14.0432 22.1188 13.9095 22.1183 13.7747H20.7499Z" fill="#EFC8A1"/>
<path fill-rule="evenodd" clip-rule="evenodd" d="M20.75 13.7747H22.0968C22.0968 13.2297 21.4981 12.7806 20.75 12.7806C20.0015 12.7806 19.4028 13.2297 19.4028 13.7747C19.4021 13.9075 19.4364 14.0392 19.5039 14.162C19.5713 14.2848 19.6705 14.3964 19.7958 14.4903C19.921 14.5843 20.0698 14.6586 20.2336 14.7092C20.3974 14.7598 20.5729 14.7855 20.75 14.7849C20.9271 14.7855 21.1026 14.7597 21.2663 14.7091C21.4301 14.6585 21.5788 14.5841 21.704 14.4902C21.8292 14.3963 21.9284 14.2847 21.9958 14.1619C22.0632 14.0391 22.0976 13.9075 22.0968 13.7747H20.75Z" fill="#EFCAA3"/>
<path fill-rule="evenodd" clip-rule="evenodd" d="M20.7498 13.7747H22.0536C22.0547 13.646 22.0218 13.5185 21.9567 13.3994C21.8915 13.2804 21.7956 13.1723 21.6743 13.0813C21.553 12.9903 21.4088 12.9183 21.2501 12.8694C21.0914 12.8206 20.9213 12.7958 20.7498 12.7967C20.5782 12.7958 20.4081 12.8205 20.2494 12.8694C20.0906 12.9182 19.9464 12.9902 19.825 13.0812C19.7037 13.1722 19.6076 13.2803 19.5425 13.3994C19.4773 13.5184 19.4443 13.646 19.4453 13.7747C19.4453 14.3199 20.0226 14.7689 20.7498 14.7689C21.4765 14.7689 22.0536 14.32 22.0536 13.7747H20.7498Z" fill="#EFCAA3"/>
<path fill-rule="evenodd" clip-rule="evenodd" d="M20.7499 13.7746H22.0323C22.0323 13.2454 21.4552 12.8126 20.7499 12.8126C20.0441 12.8126 19.4668 13.2454 19.4668 13.7746C19.4668 14.3038 20.0441 14.7368 20.7499 14.7368C21.455 14.7368 22.0323 14.3038 22.0323 13.7746H20.7499V13.7746Z" fill="#F0CCA6"/>
<path fill-rule="evenodd" clip-rule="evenodd" d="M20.75 13.7747H22.0113C22.0113 13.2617 21.4337 12.8287 20.75 12.8287C20.0442 12.8287 19.4883 13.2617 19.4883 13.7747C19.4883 14.3039 20.0442 14.7208 20.75 14.7208C21.4337 14.7208 22.0113 14.3039 22.0113 13.7747H20.75Z" fill="#F0CCA8"/>
<path fill-rule="evenodd" clip-rule="evenodd" d="M20.7501 13.7746H21.99C21.99 13.2616 21.4339 12.8607 20.7501 12.8607C20.0659 12.8607 19.5098 13.2616 19.5098 13.7746C19.51 14.0213 19.6407 14.2578 19.8733 14.4322C20.1059 14.6066 20.4212 14.7046 20.7501 14.7047C21.0789 14.7045 21.3941 14.6064 21.6266 14.4321C21.8591 14.2577 21.9898 14.0212 21.99 13.7746H20.7501Z" fill="#F1CEAA"/>
<path fill-rule="evenodd" clip-rule="evenodd" d="M20.7498 13.7747H21.9468C21.9471 13.6567 21.9163 13.5399 21.8563 13.4309C21.7962 13.3218 21.7081 13.2228 21.5969 13.1394C21.4857 13.0559 21.3536 12.9898 21.2082 12.9448C21.0629 12.8997 20.9071 12.8766 20.7498 12.8768C20.0868 12.8768 19.5522 13.2776 19.5522 13.7747C19.5522 14.2718 20.0868 14.6888 20.7498 14.6888C21.4124 14.6888 21.9468 14.2718 21.9468 13.7747H20.7498Z" fill="#F1CEAA"/>
<path fill-rule="evenodd" clip-rule="evenodd" d="M20.7497 13.7747H21.9255C21.9255 13.2938 21.391 12.8927 20.7497 12.8927C20.1081 12.8927 19.5737 13.2936 19.5737 13.7747C19.5733 13.8906 19.6034 14.0055 19.6623 14.1126C19.7212 14.2198 19.8078 14.3172 19.9171 14.3991C20.0264 14.4811 20.1563 14.5461 20.2991 14.5903C20.442 14.6345 20.5952 14.657 20.7497 14.6567C20.9043 14.657 21.0574 14.6344 21.2003 14.5902C21.3431 14.546 21.4729 14.4811 21.5822 14.3991C21.6915 14.3171 21.778 14.2198 21.837 14.1126C21.8959 14.0054 21.926 13.8906 21.9255 13.7747H20.7497Z" fill="#F1D0AD"/>
<path fill-rule="evenodd" clip-rule="evenodd" d="M20.7498 13.7746H21.9041C21.9041 13.3096 21.3909 12.9088 20.7498 12.9088C20.1082 12.9088 19.5952 13.3096 19.5952 13.7746C19.5946 13.8885 19.624 14.0013 19.6818 14.1066C19.7396 14.2119 19.8246 14.3075 19.9319 14.3881C20.0393 14.4686 20.1668 14.5323 20.3072 14.5757C20.4476 14.619 20.598 14.6411 20.7498 14.6406C20.9016 14.641 21.052 14.6189 21.1924 14.5756C21.3327 14.5322 21.4602 14.4685 21.5675 14.3879C21.6748 14.3074 21.7598 14.2118 21.8175 14.1065C21.8753 14.0013 21.9047 13.8885 21.9041 13.7746H20.7498V13.7746Z" fill="#F1D0AE"/>
<path fill-rule="evenodd" clip-rule="evenodd" d="M20.7499 13.7747H21.8828C21.8828 13.3096 21.3696 12.9409 20.7499 12.9409C20.1299 12.9409 19.6167 13.3096 19.6167 13.7747C19.6167 14.2397 20.1299 14.6244 20.7499 14.6244C21.3696 14.6244 21.8828 14.2396 21.8828 13.7747H20.7499Z" fill="#F2D2B1"/>
<path fill-rule="evenodd" clip-rule="evenodd" d="M20.7502 13.7746H21.8405C21.8405 13.3258 21.3484 12.9569 20.7502 12.9569C20.1515 12.9569 19.6597 13.3258 19.6597 13.7746C19.6597 14.2397 20.1517 14.6084 20.7502 14.6084C21.3484 14.6084 21.8405 14.2395 21.8405 13.7746H20.7502Z" fill="#F2D2B3"/>
<path fill-rule="evenodd" clip-rule="evenodd" d="M20.7498 13.7747H21.8185C21.8185 13.3417 21.3478 12.973 20.7498 12.973C20.1511 12.973 19.6807 13.3417 19.6807 13.7747C19.6807 14.2237 20.1513 14.5764 20.7498 14.5764C21.3481 14.5764 21.8185 14.2236 21.8185 13.7747H20.7498Z" fill="#F3D4B4"/>
<path fill-rule="evenodd" clip-rule="evenodd" d="M20.7499 13.7747H21.7972C21.7968 13.5664 21.6864 13.3668 21.4901 13.2195C21.2937 13.0722 21.0276 12.9893 20.7499 12.989C20.1724 12.989 19.7021 13.3418 19.7021 13.7747C19.7021 14.2075 20.1724 14.5603 20.7499 14.5603C21.0276 14.56 21.2937 14.4771 21.49 14.3298C21.6863 14.1825 21.7968 13.9829 21.7972 13.7747H20.7499Z" fill="#F3D4B5"/>
<path fill-rule="evenodd" clip-rule="evenodd" d="M20.75 13.7747H21.7758C21.7758 13.3579 21.3055 13.0211 20.75 13.0211C20.1939 13.0211 19.7236 13.3579 19.7236 13.7747C19.7236 14.2077 20.1941 14.5443 20.75 14.5443C21.3057 14.5443 21.7758 14.2075 21.7758 13.7747H20.75Z" fill="#F3D4B7"/>
<path fill-rule="evenodd" clip-rule="evenodd" d="M20.7497 13.7747H21.733C21.7333 13.6778 21.7081 13.5817 21.6588 13.4921C21.6096 13.4025 21.5372 13.3211 21.4458 13.2526C21.3544 13.1841 21.2459 13.1297 21.1264 13.0928C21.007 13.0558 20.879 13.0369 20.7497 13.0371C20.6205 13.0368 20.4924 13.0557 20.3729 13.0927C20.2534 13.1296 20.1448 13.1839 20.0534 13.2525C19.962 13.321 19.8896 13.4025 19.8403 13.4921C19.791 13.5817 19.7658 13.6777 19.7661 13.7747C19.7661 14.1916 20.1938 14.5283 20.7497 14.5283C21.3055 14.5283 21.733 14.1915 21.733 13.7747H20.7497Z" fill="#F3D6B8"/>
<path fill-rule="evenodd" clip-rule="evenodd" d="M20.7498 13.7746H21.7117C21.7122 13.6798 21.6877 13.5858 21.6395 13.4981C21.5914 13.4104 21.5206 13.3307 21.4311 13.2636C21.3417 13.1965 21.2355 13.1434 21.1186 13.1073C21.0016 13.0711 20.8763 13.0527 20.7498 13.0531C20.2153 13.0531 19.7876 13.3739 19.7876 13.7746C19.7876 14.1754 20.2153 14.4962 20.7498 14.4962C20.8763 14.4965 21.0016 14.4781 21.1186 14.442C21.2355 14.4059 21.3417 14.3527 21.4311 14.2857C21.5206 14.2186 21.5914 14.1389 21.6395 14.0512C21.6877 13.9635 21.7122 13.8695 21.7117 13.7746H20.7498Z" fill="#F4D8BA"/>
<path fill-rule="evenodd" clip-rule="evenodd" d="M20.75 13.7747H21.6906C21.6906 13.3898 21.2629 13.0692 20.75 13.0692C20.237 13.0692 19.8091 13.39 19.8091 13.7747C19.8091 14.1756 20.237 14.4802 20.75 14.4802C21.2629 14.4802 21.6906 14.1755 21.6906 13.7747H20.75Z" fill="#F4D9BC"/>
<path fill-rule="evenodd" clip-rule="evenodd" d="M20.7501 13.7746H21.6694C21.6694 13.4058 21.2633 13.1012 20.7501 13.1012C20.2369 13.1012 19.8306 13.4058 19.8306 13.7746C19.8306 14.1595 20.2369 14.4641 20.7501 14.4641C21.2633 14.4641 21.6694 14.1594 21.6694 13.7746H20.7501V13.7746Z" fill="#F4D9BE"/>
<path fill-rule="evenodd" clip-rule="evenodd" d="M20.7498 13.7747H21.6261C21.6261 13.4059 21.2414 13.1173 20.7498 13.1173C20.2578 13.1173 19.873 13.4059 19.873 13.7747C19.873 14.1436 20.2578 14.4482 20.7498 14.4482C21.2414 14.4482 21.6261 14.1434 21.6261 13.7747H20.7498Z" fill="#F4DBBF"/>
<path fill-rule="evenodd" clip-rule="evenodd" d="M20.7499 13.7747H21.6051C21.6044 13.6047 21.5141 13.4419 21.3539 13.3217C21.1937 13.2015 20.9765 13.1338 20.7499 13.1333C20.2793 13.1333 19.8945 13.4219 19.8945 13.7747C19.8945 14.1275 20.2793 14.4161 20.7499 14.4161C20.9765 14.4156 21.1937 14.3478 21.3539 14.2277C21.5141 14.1075 21.6044 13.9446 21.6051 13.7747H20.7499Z" fill="#F4DBC0"/>
<path fill-rule="evenodd" clip-rule="evenodd" d="M20.75 13.7746H21.5838C21.5838 13.4378 21.1989 13.1493 20.75 13.1493C20.301 13.1493 19.916 13.4378 19.916 13.7746C19.916 14.1275 20.301 14.4 20.75 14.4C21.1987 14.4 21.5838 14.1275 21.5838 13.7746H20.75Z" fill="#F5DDC3"/>
<path fill-rule="evenodd" clip-rule="evenodd" d="M20.7501 13.7747H21.5624C21.5624 13.4539 21.1988 13.1814 20.7501 13.1814C20.3011 13.1814 19.9375 13.4539 19.9375 13.7747C19.9375 13.9363 20.0231 14.0913 20.1755 14.2055C20.3278 14.3198 20.5345 14.384 20.7499 14.384C20.9654 14.384 21.172 14.3198 21.3244 14.2055C21.4768 14.0913 21.5624 13.9363 21.5624 13.7747H20.7501Z" fill="#F5DDC3"/>
<path fill-rule="evenodd" clip-rule="evenodd" d="M20.7499 13.7746H21.5191C21.5191 13.4538 21.1776 13.1975 20.7499 13.1975C20.3222 13.1975 19.98 13.454 19.98 13.7746C19.98 14.0952 20.3222 14.3679 20.7499 14.3679C21.1776 14.3679 21.5191 14.0954 21.5191 13.7746H20.7499Z" fill="#F6DFC6"/>
<path fill-rule="evenodd" clip-rule="evenodd" d="M20.75 13.7747H21.4981C21.4981 13.47 21.1561 13.2136 20.75 13.2136C20.3435 13.2136 20.0015 13.4701 20.0015 13.7747C20.0015 14.0955 20.3435 14.3359 20.75 14.3359C21.1561 14.3359 21.4981 14.0955 21.4981 13.7747H20.75Z" fill="#F6DFC7"/>
<path fill-rule="evenodd" clip-rule="evenodd" d="M20.7501 13.7747H21.4768C21.4768 13.4861 21.1562 13.2296 20.7501 13.2296C20.3436 13.2296 20.023 13.4861 20.023 13.7747C20.0222 13.8464 20.0404 13.9176 20.0767 13.984C20.113 14.0505 20.1665 14.1108 20.2342 14.1616C20.3019 14.2123 20.3823 14.2524 20.4709 14.2796C20.5595 14.3068 20.6544 14.3205 20.7501 14.3199C20.8458 14.3204 20.9406 14.3067 21.0292 14.2795C21.1177 14.2523 21.1981 14.2122 21.2658 14.1615C21.3334 14.1107 21.3869 14.0504 21.4232 13.984C21.4594 13.9176 21.4776 13.8464 21.4768 13.7747H20.7501Z" fill="#F6E1CA"/>
<path fill-rule="evenodd" clip-rule="evenodd" d="M20.7502 13.7747H21.4553C21.4553 13.4861 21.1347 13.2617 20.7502 13.2617C20.3653 13.2617 20.0444 13.4861 20.0444 13.7747C20.0444 14.0634 20.365 14.3039 20.7502 14.3039C21.1349 14.3039 21.4553 14.0634 21.4553 13.7747H20.7502Z" fill="#F6E1CC"/>
<path fill-rule="evenodd" clip-rule="evenodd" d="M20.7499 13.7747H21.4125C21.4117 13.6431 21.3416 13.517 21.2175 13.424C21.0934 13.3309 20.9254 13.2783 20.7499 13.2776C20.5744 13.2782 20.4062 13.3308 20.2821 13.4239C20.1579 13.5169 20.0878 13.643 20.0869 13.7747C20.0869 14.0634 20.3864 14.2878 20.7499 14.2878C21.1131 14.2878 21.4125 14.0634 21.4125 13.7747H20.7499Z" fill="#F7E3CD"/>
<path fill-rule="evenodd" clip-rule="evenodd" d="M20.75 13.7746H21.3913C21.3913 13.5181 21.1132 13.2937 20.75 13.2937C20.3865 13.2937 20.1084 13.5181 20.1084 13.7746C20.1084 14.0471 20.3865 14.2557 20.75 14.2557C21.1132 14.2557 21.3913 14.0471 21.3913 13.7746H20.75Z" fill="#F7E3CF"/>
<path fill-rule="evenodd" clip-rule="evenodd" d="M20.7497 13.7746H21.3694C21.3693 13.6514 21.304 13.5332 21.1878 13.446C21.0716 13.3588 20.9141 13.3097 20.7497 13.3096C20.5881 13.3127 20.4344 13.3631 20.3215 13.45C20.2087 13.5368 20.1455 13.6533 20.1455 13.7746C20.1455 13.8959 20.2087 14.0124 20.3215 14.0993C20.4344 14.1861 20.5881 14.2365 20.7497 14.2397C20.9141 14.2395 21.0717 14.1905 21.1878 14.1033C21.304 14.0161 21.3693 13.8979 21.3694 13.7746H20.7497Z" fill="#F7E3D0"/>
<path fill-rule="evenodd" clip-rule="evenodd" d="M20.7501 13.7747H21.3483C21.3483 13.5342 21.0707 13.3417 20.7501 13.3417C20.429 13.3417 20.1514 13.5342 20.1514 13.7747C20.1512 13.8337 20.1666 13.8921 20.1966 13.9466C20.2266 14.0012 20.2707 14.0507 20.3264 14.0924C20.382 14.1342 20.448 14.1672 20.5208 14.1897C20.5935 14.2123 20.6714 14.2238 20.7501 14.2237C20.8287 14.2238 20.9066 14.2122 20.9793 14.1897C21.0519 14.1672 21.118 14.1341 21.1735 14.0924C21.2291 14.0506 21.2732 14.0011 21.3032 13.9466C21.3332 13.8921 21.3485 13.8336 21.3483 13.7747H20.7501Z" fill="#F8E5D1"/>
<path fill-rule="evenodd" clip-rule="evenodd" d="M20.75 13.7747H21.3057C21.3057 13.5503 21.0706 13.3579 20.75 13.3579C20.6769 13.3575 20.6043 13.368 20.5366 13.3888C20.4689 13.4096 20.4074 13.4403 20.3557 13.4791C20.3039 13.5178 20.263 13.5639 20.2352 13.6147C20.2074 13.6655 20.1934 13.7199 20.1939 13.7747C20.1939 14.0152 20.429 14.2077 20.75 14.2077C21.0706 14.2077 21.3057 14.0153 21.3057 13.7747H20.75Z" fill="#F8E8D4"/>
<path fill-rule="evenodd" clip-rule="evenodd" d="M20.7499 13.7747H21.2841C21.2848 13.7219 21.2715 13.6696 21.2449 13.6207C21.2183 13.5719 21.179 13.5275 21.1293 13.4901C21.0795 13.4528 21.0203 13.4233 20.9552 13.4033C20.8901 13.3833 20.8203 13.3733 20.7499 13.3738C20.6795 13.3733 20.6097 13.3833 20.5445 13.4033C20.4794 13.4232 20.4202 13.4527 20.3704 13.4901C20.3206 13.5274 20.2813 13.5718 20.2546 13.6207C20.228 13.6696 20.2147 13.7219 20.2154 13.7747C20.2146 13.8275 20.228 13.8799 20.2546 13.9288C20.2812 13.9777 20.3205 14.0221 20.3703 14.0594C20.4201 14.0968 20.4793 14.1263 20.5445 14.1462C20.6097 14.1662 20.6795 14.1762 20.7499 14.1756C20.8203 14.1761 20.8901 14.1661 20.9552 14.1461C21.0203 14.1262 21.0795 14.0966 21.1293 14.0593C21.179 14.022 21.2183 13.9776 21.2449 13.9287C21.2715 13.8798 21.2848 13.8275 21.2841 13.7747H20.7499Z" fill="#F8E8D6"/>
<path fill-rule="evenodd" clip-rule="evenodd" d="M20.75 13.7746H21.2632C21.2632 13.5662 21.0277 13.4058 20.75 13.4058C20.4719 13.4058 20.2368 13.5661 20.2368 13.7746C20.2368 13.9832 20.4719 14.1595 20.75 14.1595C21.0277 14.1595 21.2632 13.9832 21.2632 13.7746H20.75Z" fill="#F8E8D8"/>
<path fill-rule="evenodd" clip-rule="evenodd" d="M20.7498 13.7747H21.2414C21.2414 13.5823 21.0059 13.4219 20.7498 13.4219C20.4929 13.4219 20.2578 13.5823 20.2578 13.7747C20.2578 13.9831 20.4929 14.1436 20.7498 14.1436C21.0059 14.1436 21.2414 13.9833 21.2414 13.7747H20.7498Z" fill="#F9EAD9"/>
<path fill-rule="evenodd" clip-rule="evenodd" d="M20.7498 13.7747H21.1985C21.1985 13.5983 21.0059 13.4379 20.7498 13.4379C20.4929 13.4379 20.3008 13.5982 20.3008 13.7747C20.3008 13.9672 20.4929 14.1275 20.7498 14.1275C21.0059 14.1275 21.1985 13.9672 21.1985 13.7747H20.7498Z" fill="#FAECDC"/>
<path fill-rule="evenodd" clip-rule="evenodd" d="M20.75 13.7746H21.1776C21.1773 13.6896 21.1321 13.6082 21.052 13.5481C20.9718 13.488 20.8633 13.4541 20.75 13.4539C20.5144 13.4539 20.3223 13.5981 20.3223 13.7746C20.3223 13.9511 20.5144 14.0954 20.75 14.0954C20.8633 14.0951 20.9719 14.0613 21.052 14.0012C21.1322 13.9411 21.1773 13.8596 21.1776 13.7746H20.75V13.7746Z" fill="#FAECDD"/>
<path fill-rule="evenodd" clip-rule="evenodd" d="M20.7498 13.7746H21.1559C21.1559 13.6143 20.9633 13.4861 20.7498 13.4861C20.5358 13.4861 20.3433 13.6143 20.3433 13.7746C20.3433 13.951 20.5358 14.0794 20.7498 14.0794C20.8031 14.0794 20.856 14.0715 20.9052 14.0562C20.9545 14.0409 20.9993 14.0184 21.037 13.9901C21.0747 13.9618 21.1046 13.9282 21.125 13.8912C21.1454 13.8543 21.1559 13.8146 21.1559 13.7746H20.7498Z" fill="#FAECDF"/>
<path fill-rule="evenodd" clip-rule="evenodd" d="M20.7502 13.7747H21.1349C21.1349 13.6304 20.9639 13.5022 20.7502 13.5022C20.5362 13.5022 20.3652 13.6304 20.3652 13.7747C20.3652 13.9352 20.5362 14.0634 20.7502 14.0634C20.8008 14.0636 20.8509 14.0562 20.8977 14.0417C20.9445 14.0273 20.987 14.006 21.0227 13.9792C21.0585 13.9523 21.0868 13.9205 21.1061 13.8854C21.1253 13.8503 21.1351 13.8127 21.1349 13.7747H20.7502Z" fill="#FAEEE0"/>
<path fill-rule="evenodd" clip-rule="evenodd" d="M20.7501 13.7747H21.0921C21.0921 13.6304 20.9421 13.5182 20.7501 13.5182C20.5575 13.5182 20.4077 13.6304 20.4077 13.7747C20.4077 13.919 20.5577 14.0472 20.7501 14.0472C20.9423 14.0472 21.0921 13.919 21.0921 13.7747H20.7501Z" fill="#FBF0E3"/>
<path fill-rule="evenodd" clip-rule="evenodd" d="M20.7497 13.7746H21.0704C21.0704 13.6464 20.9203 13.5342 20.7497 13.5342C20.5787 13.5342 20.4287 13.6464 20.4287 13.7746C20.4287 13.9189 20.5787 14.0151 20.7497 14.0151C20.9203 14.0151 21.0704 13.9189 21.0704 13.7746H20.7497Z" fill="#FBF1E5"/>
<path fill-rule="evenodd" clip-rule="evenodd" d="M20.7501 13.7747H21.0492C21.0492 13.6625 20.9207 13.5663 20.7501 13.5663C20.5791 13.5663 20.4507 13.6625 20.4507 13.7747C20.4507 13.9031 20.5791 13.9993 20.7501 13.9993C20.9207 13.9993 21.0492 13.9031 21.0492 13.7747H20.7501Z" fill="#FBF1E7"/>
<path fill-rule="evenodd" clip-rule="evenodd" d="M20.7498 13.7746H21.0274C21.0274 13.6624 20.8994 13.5823 20.7498 13.5823C20.5997 13.5823 20.4717 13.6624 20.4717 13.7746C20.4717 13.887 20.5997 13.983 20.7498 13.983C20.8994 13.983 21.0274 13.8869 21.0274 13.7746H20.7498Z" fill="#FCF3E8"/>
<path fill-rule="evenodd" clip-rule="evenodd" d="M20.7502 13.7747H20.9853C20.9853 13.6785 20.8782 13.5984 20.7502 13.5984C20.6217 13.5984 20.5146 13.6787 20.5146 13.7747C20.5146 13.8871 20.6217 13.9672 20.7502 13.9672C20.8782 13.9672 20.9853 13.8871 20.9853 13.7747H20.7502Z" fill="#FCF3EA"/>
<path fill-rule="evenodd" clip-rule="evenodd" d="M20.7501 13.7747H20.9636C20.9636 13.6945 20.8781 13.6144 20.7501 13.6144C20.6216 13.6144 20.5361 13.6945 20.5361 13.7747C20.5361 13.871 20.6216 13.9351 20.7501 13.9351C20.8781 13.9351 20.9636 13.871 20.9636 13.7747H20.7501Z" fill="#FCF5ED"/>
<path fill-rule="evenodd" clip-rule="evenodd" d="M20.7502 13.7746H20.9424C20.9424 13.6945 20.8569 13.6464 20.7502 13.6464C20.6431 13.6464 20.5576 13.6945 20.5576 13.7746C20.5576 13.8548 20.6431 13.9189 20.7502 13.9189C20.7755 13.9189 20.8005 13.9153 20.8239 13.908C20.8472 13.9008 20.8685 13.8902 20.8863 13.8768C20.9042 13.8633 20.9183 13.8474 20.928 13.8299C20.9376 13.8123 20.9425 13.7936 20.9424 13.7746H20.7502Z" fill="#FCF5EF"/>
<path fill-rule="evenodd" clip-rule="evenodd" d="M20.7501 13.7747H20.9207C20.9207 13.7106 20.8352 13.6625 20.7501 13.6625C20.6646 13.6625 20.5791 13.7107 20.5791 13.7747C20.5791 13.8388 20.6646 13.9031 20.7501 13.9031C20.8352 13.9031 20.9207 13.8388 20.9207 13.7747H20.7501Z" fill="#FDF8F1"/>
<path fill-rule="evenodd" clip-rule="evenodd" d="M20.75 13.7746H20.8781C20.8781 13.7266 20.8139 13.6785 20.75 13.6785C20.6855 13.6785 20.6216 13.7266 20.6216 13.7746C20.6216 13.8388 20.6857 13.887 20.75 13.887C20.8142 13.887 20.8781 13.8388 20.8781 13.7746H20.75Z" fill="#FDF8F3"/>
<path fill-rule="evenodd" clip-rule="evenodd" d="M20.7501 13.7746H20.8568C20.8568 13.7425 20.8143 13.6945 20.7501 13.6945C20.6856 13.6945 20.6431 13.7425 20.6431 13.7746C20.6431 13.8227 20.6856 13.8548 20.7501 13.8548C20.8143 13.8548 20.8568 13.8227 20.8568 13.7746H20.7501Z" fill="#FDF8F5"/>
<path fill-rule="evenodd" clip-rule="evenodd" d="M20.75 13.7747H20.8351C20.8351 13.7426 20.7926 13.7266 20.75 13.7266C20.7071 13.7266 20.6646 13.7426 20.6646 13.7747C20.6646 13.8067 20.7071 13.8388 20.75 13.8388C20.7926 13.8388 20.8351 13.8067 20.8351 13.7747H20.75Z" fill="#FEFBF6"/>
<path fill-rule="evenodd" clip-rule="evenodd" d="M20.7501 13.7746H20.7926C20.7926 13.7586 20.771 13.7426 20.7501 13.7426C20.7285 13.7426 20.6855 13.7586 20.6855 13.7746C20.6855 13.8067 20.7285 13.8227 20.7501 13.8227C20.7713 13.8227 20.7926 13.8067 20.7926 13.7746H20.7501Z" fill="#FFFFFB"/>
<path fill-rule="evenodd" clip-rule="evenodd" d="M20.7501 13.7747H20.7713C20.7713 13.7747 20.7713 13.7587 20.7501 13.7587C20.7285 13.7587 20.7285 13.7747 20.7285 13.7747C20.7285 13.7907 20.7285 13.8068 20.7501 13.8068C20.7713 13.8068 20.7713 13.7907 20.7713 13.7747H20.7501Z" fill="white"/>
<path fill-rule="evenodd" clip-rule="evenodd" d="M26.3299 14.5124L24.8119 11.6261H23.5718L26.0093 16.0356H26.608L29.088 11.6261H27.8692L26.3299 14.5124ZM29.6012 15.9236H32.7654V15.2019H30.7128V14.0473H32.6797V13.3098H30.7128V12.3637H32.7654V11.6261H29.6012V15.9236ZM37.1909 12.8928C37.1909 12.0911 36.4637 11.6261 35.1599 11.6261H33.5135V15.9234H34.6251V14.2077H34.7748L36.3141 15.9234H37.6825L35.8866 14.1113C36.7202 13.9832 37.1909 13.5502 37.1909 12.8928V12.8928ZM34.9458 13.6145H34.6251V12.2997H34.9671C35.6727 12.2997 36.0358 12.5241 36.0358 12.9411C36.036 13.3739 35.6729 13.6145 34.9458 13.6145V13.6145ZM2.01936 17.1853V17.5703H2.65332V17.7261H2.01936V18.3969H1.7915V17.0294H2.67407V17.1853H2.01936ZM3.71476 17.0294H3.94282V18.3969H3.71476V17.0294ZM5.0437 16.9637L6.41123 18.0399V17.0294H6.63908V18.4533L5.2701 17.3777V18.3969H5.0437V16.9637V16.9637ZM8.74724 17.8984H8.09771L8.42227 17.3447L8.74724 17.8984ZM8.84062 18.0544L9.04855 18.3969H9.29384L8.42248 16.9713L7.55153 18.3969H7.79578L8.00433 18.0544H8.84062V18.0544ZM10.2059 16.9637L11.5749 18.0399V17.0294H11.8029V18.4533L10.4323 17.3777V18.3969H10.2059V16.9637V16.9637ZM14.235 17.2908C14.1053 17.2034 13.9256 17.1565 13.7536 17.1565C13.3458 17.1565 13.0337 17.4122 13.0337 17.7152C13.0337 18.0145 13.3427 18.2701 13.7494 18.2701C13.9287 18.2701 14.0997 18.2197 14.2348 18.1286V18.3303C14.0888 18.3924 13.9241 18.4253 13.7563 18.426C13.2352 18.426 12.8052 18.116 12.8052 17.7204C12.8052 17.3157 13.2381 16.9998 13.7762 16.9998C13.9362 16.9998 14.0978 17.0294 14.2346 17.0927V17.2908H14.235V17.2908ZM15.2815 17.0294H15.5081V18.3969H15.2815V17.0294ZM17.6325 17.8984H16.9831L17.3094 17.3447L17.6325 17.8984V17.8984ZM17.7261 18.0544L17.9346 18.3969H18.1789L17.3094 16.9713L16.438 18.3969H16.6816L16.8896 18.0544H17.7261V18.0544ZM19.3401 18.2418H19.8944V18.3969H19.1135V17.0294H19.3401V18.2418ZM23.1163 17.289C23.0503 17.2032 22.9627 17.1598 22.8237 17.1598C22.6782 17.1598 22.518 17.234 22.518 17.3542C22.518 17.4608 22.6604 17.5174 22.7733 17.55L22.903 17.5884C23.1628 17.6642 23.3562 17.7716 23.3562 17.9999C23.3562 18.2488 23.0993 18.426 22.7733 18.426C22.4778 18.426 22.248 18.2631 22.2103 18.0435L22.4396 18.0075C22.4367 18.1577 22.5965 18.2667 22.7913 18.2667C22.9878 18.2667 23.1277 18.1437 23.1277 17.9999C23.1277 17.8533 22.9708 17.7895 22.8139 17.7401L22.6886 17.7008C22.4798 17.6335 22.2914 17.5448 22.2914 17.3542C22.2914 17.1325 22.5525 16.9998 22.8289 16.9998C23.0312 16.9998 23.1985 17.0746 23.297 17.2068L23.1163 17.289V17.289ZM24.3857 17.0294H25.366V17.1853H24.6137V17.5686H25.3454V17.7244H24.6137V18.2418H25.366V18.3969H24.3857V17.0294V17.0294ZM26.6569 17.1817H26.7152C26.9423 17.1817 27.2125 17.2125 27.2125 17.427C27.2125 17.6444 26.9595 17.6768 26.7277 17.6768H26.6567V17.1817H26.6569V17.1817ZM26.9877 17.8024C27.2513 17.7784 27.4254 17.6156 27.4254 17.4194C27.4254 17.289 27.3378 17.1598 27.1851 17.0925C27.0404 17.0311 26.8661 17.0294 26.7049 17.0294H26.4293V18.3969H26.6571V17.8191H26.7507L27.2878 18.3969H27.5629L26.9877 17.8024V17.8024ZM29.1253 18.0416L29.6672 17.0294H29.9168L29.1253 18.4702L28.3324 17.0294H28.5816L29.1253 18.0416ZM30.8454 17.0294H31.0731V18.3969H30.8454V17.0294ZM33.5253 17.2908C33.3939 17.2034 33.214 17.1565 33.0414 17.1565C32.634 17.1565 32.3219 17.4122 32.3219 17.7152C32.3219 18.0145 32.6307 18.2701 33.0372 18.2701C33.2167 18.2701 33.3894 18.2197 33.5253 18.1286V18.3303C33.3788 18.3923 33.2137 18.4252 33.0455 18.426C32.5259 18.426 32.0939 18.116 32.0939 17.7204C32.0939 17.3157 32.5288 16.9998 33.0646 16.9998C33.2246 16.9998 33.3865 17.0294 33.5255 17.0927V17.2908H33.5253V17.2908ZM34.5758 17.0294H35.5558V17.1853H34.804V17.5686H35.5343V17.7244H34.804V18.2418H35.5558V18.3969H34.5758V17.0294V17.0294ZM37.4274 17.289C37.361 17.2032 37.2739 17.1598 37.1361 17.1598C36.9914 17.1598 36.8312 17.234 36.8312 17.3542C36.8312 17.4608 36.9724 17.5174 37.085 17.55L37.2168 17.5884C37.4745 17.6642 37.668 17.7716 37.668 17.9999C37.668 18.2488 37.4115 18.426 37.085 18.426C36.7908 18.426 36.5594 18.2631 36.5225 18.0435L36.7511 18.0075C36.7482 18.1577 36.9093 18.2667 37.1045 18.2667C37.3006 18.2667 37.4413 18.1437 37.4413 17.9999C37.4413 17.8533 37.2828 17.7895 37.1263 17.7401L37.0008 17.7008C36.792 17.6335 36.6036 17.5448 36.6036 17.3542C36.6036 17.1325 36.8651 16.9998 37.1411 16.9998C37.3434 16.9998 37.5111 17.0746 37.6109 17.2068L37.4274 17.289V17.289ZM37.8441 12.0073C37.8441 12.0402 37.814 12.0577 37.753 12.0577H37.7323V11.9592H37.7545C37.8151 11.9593 37.8441 11.9749 37.8441 12.0073ZM38.023 12.2676L37.8568 12.1111C37.9278 12.0974 37.9686 12.0585 37.9686 12.0049C37.9686 11.9308 37.8993 11.889 37.7761 11.889H37.6152V12.2676H37.7344V12.121L37.8759 12.2676H38.023ZM38.2353 12.0776C38.2353 11.8968 38.0392 11.7477 37.8012 11.7477C37.7432 11.7474 37.6858 11.7557 37.6322 11.7722C37.5786 11.7886 37.5299 11.8129 37.4889 11.8436C37.4479 11.8743 37.4154 11.9108 37.3933 11.9509C37.3712 11.9911 37.36 12.0342 37.3602 12.0776C37.3602 12.2614 37.5571 12.408 37.8012 12.408C38.0392 12.4079 38.2353 12.2589 38.2353 12.0776ZM38.1465 12.0785C38.1465 12.227 37.9908 12.3487 37.7991 12.3487C37.6061 12.3487 37.4474 12.2276 37.4474 12.0785C37.4474 11.9277 37.6047 11.8079 37.7991 11.8079C37.9908 11.8079 38.1465 11.9296 38.1465 12.0785Z" fill="black"/>
</g>
<defs>
<clipPath id="clip0_1420_330">
<rect width="40" height="30" fill="white"/>
</clipPath>
</defs>
</svg>
