<svg width="31" height="19" viewBox="0 0 31 19" fill="none" xmlns="http://www.w3.org/2000/svg">
<path d="M20.5229 0.809449C18.5808 0.808591 16.6825 1.3448 15.071 2.34948C14.96 2.41977 14.1932 2.92747 14.1595 2.95221C12.8857 3.84003 12.0304 3.99364 10.8591 3.72157C10.7875 3.70464 10.4519 3.5979 10.3465 3.56015C9.25255 3.17835 8.07571 3.04555 6.91484 3.17289C5.75402 3.30024 4.64313 3.68403 3.67553 4.29199C2.70794 4.89995 1.91193 5.71431 1.3544 6.66665C0.796869 7.61898 0.494112 8.68148 0.471573 9.76477C0.449033 10.8481 0.707371 11.9206 1.22487 12.8922C1.74237 13.8637 2.50392 14.706 3.4455 15.3481C4.38709 15.9901 5.48117 16.4133 6.63586 16.582C7.79054 16.7508 8.97205 16.6601 10.0811 16.3177C11.8282 15.8335 12.7762 15.9663 13.873 16.6836C14.0921 16.8268 14.6202 17.1405 14.7297 17.2147C15.9781 18.0639 17.4258 18.6266 18.9542 18.857C20.4826 19.0873 22.0481 18.9786 23.5224 18.5398C24.9967 18.101 26.3379 17.3446 27.4359 16.3326C28.5339 15.3205 29.3575 14.0816 29.8392 12.7176C30.3209 11.3535 30.447 9.903 30.2071 8.48505C29.9672 7.06705 29.3682 5.72197 28.4591 4.56003C27.5501 3.39808 26.3569 2.45238 24.9775 1.80044C23.598 1.14851 22.0714 0.808894 20.5229 0.809449Z" fill="#272727"/>
<path d="M16.9881 11.2968C16.7092 11.5513 16.3455 11.7106 15.9563 11.7489C15.5671 11.7872 15.1754 11.7022 14.845 11.5077L14.1947 12.4645C14.7581 12.7945 15.4252 12.9386 16.0879 12.8733C16.7506 12.8081 17.3702 12.5375 17.8462 12.1052L16.9881 11.2968ZM15.8168 7.39922C15.2798 7.39131 14.7505 7.51897 14.2858 7.76856C13.821 8.01816 13.4383 8.38021 13.1785 8.81602C12.9187 9.25178 12.7918 9.74489 12.8113 10.2424C12.8307 10.74 12.9958 11.2232 13.2889 11.6405L18.6509 9.51594C18.5001 8.9211 18.1394 8.3899 17.6261 8.00648C17.1127 7.62305 16.476 7.40939 15.8168 7.39922ZM14.0403 10.3127C13.9997 9.96882 14.0795 9.62201 14.2678 9.32344C14.4561 9.02481 14.7429 8.79025 15.086 8.65427C15.4291 8.51834 15.8102 8.48817 16.1732 8.56831C16.5362 8.64846 16.8618 8.83462 17.1019 9.09935L14.0403 10.3127ZM20.3349 6.16382V11.4608L21.3264 11.8423L20.8587 12.8837L19.8756 12.5062C19.6777 12.4276 19.5095 12.2962 19.3925 12.1286C19.2619 11.9336 19.1959 11.7072 19.2029 11.4778V6.16382H20.3349ZM11.7005 6.16382V11.4608L12.6836 11.8423L12.2159 12.8837L11.2328 12.5062C11.0415 12.4271 10.879 12.2982 10.7652 12.1351C10.634 11.9402 10.5676 11.7139 10.5742 11.4843V6.16382H11.7005Z" fill="white"/>
<path d="M25.2136 8.6867C25.4196 8.77884 25.6041 8.90765 25.7564 9.06584C25.9087 9.22408 26.0259 9.40851 26.1013 9.60871C26.1766 9.80891 26.2087 10.0209 26.1957 10.2326C26.1827 10.4443 26.1248 10.6515 26.0253 10.8425L27.1222 11.3306C27.4191 10.7567 27.4915 10.1049 27.327 9.48693C27.1625 8.86894 26.7714 8.32318 26.2206 7.94305C25.6698 7.56292 24.9936 7.37215 24.3077 7.40332C23.6218 7.43448 22.969 7.6857 22.4609 8.11392L23.2811 8.94835C23.538 8.73055 23.8595 8.58917 24.204 8.54255C24.5485 8.49588 24.9002 8.54611 25.2136 8.6867Z" fill="white"/>
<path d="M23.7039 11.5988C23.2876 11.4129 22.9678 11.0816 22.8148 10.6774C22.6618 10.2732 22.6881 9.82926 22.8879 9.44306L21.7911 8.95356C21.4971 9.52676 21.4266 10.1767 21.5915 10.7927C21.7564 11.4087 22.1466 11.9526 22.6956 12.3319C23.2445 12.7112 23.9184 12.9024 24.6024 12.873C25.2863 12.8435 25.9381 12.5952 26.4467 12.1703L25.6266 11.3372C25.3703 11.5528 25.0506 11.6928 24.7082 11.7394C24.3658 11.786 24.0162 11.7371 23.7039 11.5988ZM9.45325 11.6756V10.1421C9.45325 9.60141 9.28029 9.07288 8.95621 8.6233C8.63213 8.17371 8.17154 7.82333 7.6326 7.61643C7.0937 7.40952 6.5007 7.35536 5.92859 7.46086C5.35649 7.56635 4.831 7.82669 4.4185 8.20901C4.00605 8.59134 3.72516 9.07849 3.61136 9.60879C3.49756 10.139 3.55596 10.6887 3.77919 11.1883C4.00241 11.6878 4.38042 12.1147 4.86542 12.4152C5.35046 12.7156 5.92068 12.8759 6.504 12.8759C6.96123 12.8759 7.41218 12.7774 7.82132 12.5882L7.3466 11.5598C7.08087 11.696 6.7813 11.7655 6.47765 11.7615C6.17394 11.7575 5.87668 11.68 5.6152 11.5368C5.35376 11.3936 5.13717 11.1896 4.98683 10.945C4.83655 10.7004 4.75777 10.4236 4.7583 10.1421C4.75667 9.87766 4.82566 9.61691 4.95912 9.38313C5.07656 9.17916 5.23968 9.00081 5.43757 8.86001C5.63547 8.71926 5.86353 8.61931 6.10653 8.56693C6.23539 8.53865 6.36733 8.52424 6.49975 8.52398C6.96322 8.52361 7.40793 8.69385 7.73605 8.9973C8.06416 9.30069 8.24891 9.71251 8.24964 10.1421V11.6626C8.24268 11.8921 8.30863 12.1184 8.43926 12.3135C8.55707 12.4804 8.725 12.6116 8.92237 12.691L9.47572 12.8941L9.9448 11.8527L9.45325 11.6756Z" fill="white"/>
</svg>
