<svg width="40" height="14" viewBox="0 0 40 14" fill="none" xmlns="http://www.w3.org/2000/svg">
<path d="M10.9825 0.424683H6.83776C5.00632 0.490097 3.50931 1.04733 3.07706 2.19644C2.85167 2.79572 2.72764 3.4539 2.55139 4.07513C1.65542 7.23389 0.860945 10.4796 0.00390625 13.5754H32.2724C34.7671 13.5754 36.4801 13.1771 36.9429 11.6813C37.1579 10.9865 37.3638 10.1996 37.5696 9.43619C38.3716 6.45975 39.1744 3.48349 39.9959 0.424683H10.9825Z" fill="url(#paint0_linear_1414_314)"/>
<path d="M10.659 5.09845C10.8324 5.00825 11.0556 4.59744 10.8006 4.4264C10.7198 4.37226 10.5847 4.35654 10.3962 4.38062C10.2214 4.40291 10.1208 4.44781 10.0525 4.51809C9.94272 4.63107 9.84201 4.97189 10.012 5.09851C10.1777 5.22175 10.5487 5.1558 10.659 5.09845ZM8.19237 4.4264C8.0682 5.03517 7.92831 5.63209 7.78804 6.22869C6.88733 6.23587 5.96771 6.26228 5.09898 6.2134C5.26306 5.62971 5.38073 5.01092 5.54376 4.4264H4.57331C4.22593 5.91532 3.90987 7.42803 3.52197 8.88639H4.51271C4.66807 8.13833 4.81346 7.38261 5.01812 6.67165C5.86283 6.65592 6.87522 6.62853 7.687 6.68694C7.5196 7.42606 7.31735 8.13872 7.1613 8.88639H8.15204C8.47045 7.37543 8.80574 5.87743 9.20344 4.4264H8.19237ZM22.2037 5.70942C21.4329 5.47421 20.8268 5.87168 20.5458 6.24398C20.6096 6.07839 20.6358 5.88437 20.6875 5.70942H19.9192C19.7313 6.80984 19.4544 7.84294 19.1913 8.88639H20.0608C20.1826 8.26705 20.2352 7.43214 20.5055 6.83965C20.7215 6.36622 21.2869 5.96288 22.1028 6.18294C22.1141 6.00825 22.1803 5.87494 22.2037 5.70942ZM22.6889 8.138C22.6087 7.98157 22.5881 7.72332 22.6081 7.52694C22.653 7.08568 22.8659 6.54836 23.1944 6.30507C23.6478 5.96935 24.5428 6.02491 25.2568 6.21346C25.2788 6.0317 25.3272 5.86954 25.3579 5.69418C24.1871 5.54971 23.076 5.63962 22.4869 6.10661C21.9102 6.5637 21.5323 7.61439 21.7994 8.27548C22.1122 9.04902 23.5148 9.0911 24.6502 8.79483C24.7005 8.63932 24.7271 8.46595 24.7715 8.30606C24.1509 8.54951 22.9646 8.67609 22.6889 8.138ZM32.4544 5.72466C31.686 5.43442 31.0463 5.92146 30.7965 6.2134C30.8677 6.06359 30.8718 5.86296 30.938 5.70936H30.1698C29.9626 6.80025 29.713 7.85894 29.4218 8.88633H30.3114C30.317 8.46524 30.4265 8.15379 30.5135 7.74085C30.6994 6.8591 30.9724 5.8922 32.3333 6.18288C32.3783 6.03379 32.397 5.86462 32.4544 5.72466ZM9.76941 5.70942C9.74585 5.71197 9.74743 5.73356 9.74913 5.7552C9.55757 6.83746 9.29829 7.86869 9.0213 8.88633H9.89067C10.0996 7.79674 10.3389 6.73022 10.6388 5.70936L9.76941 5.70942ZM17.4119 5.64833C16.7837 5.68492 16.2528 5.82145 15.8754 6.12184C15.4125 6.49017 15.0377 7.30463 15.1475 8.04639C15.3043 9.10447 17.0482 9.0665 18.4431 8.81006C18.4669 8.62431 18.5264 8.46551 18.5644 8.29072C17.9898 8.45313 16.9921 8.67987 16.401 8.39768C15.9547 8.18447 15.9521 7.64485 16.0977 7.17576C17.0352 7.15324 18.0096 7.15751 18.9484 7.17576C19.0079 6.84326 19.1784 6.4808 19.0293 6.15242C18.8327 5.71891 18.1285 5.60659 17.4119 5.64833ZM18.2409 6.80913H16.1987C16.2634 6.4545 16.6857 6.06469 17.3513 6.04546C17.9776 6.02737 18.426 6.21916 18.2409 6.80913ZM14.1164 5.70942C13.3805 5.50061 12.4838 5.74987 12.0949 5.98699C12.0964 5.9974 12.0857 5.99883 12.0742 5.99959C12.0808 5.99537 12.088 5.99116 12.0949 5.98699C12.0949 5.98611 12.0948 5.98524 12.0946 5.98436C12.1011 5.88242 12.1486 5.81137 12.1552 5.70942H11.4071C11.0953 7.2762 10.7257 8.79921 10.3356 10.3068H11.2049C11.3308 9.71965 11.4138 9.10025 11.5891 8.55033C11.7877 9.12869 13.0841 9.01822 13.6312 8.79472C14.7599 8.33357 15.6305 6.13905 14.1164 5.70942ZM13.429 8.29072C12.9638 8.66283 11.8203 8.65729 11.7306 8.03099C11.6916 7.75855 11.8259 7.47285 11.8925 7.19099C11.9596 6.90568 12.008 6.63192 12.0743 6.38146C12.5325 5.95888 13.8787 5.90781 14.0153 6.61055C14.1338 7.22069 13.8141 7.9825 13.429 8.29072ZM35.6893 4.33477C35.6148 4.82832 35.5152 5.30294 35.3861 5.7552C33.2535 5.24524 31.9457 6.43055 31.9692 7.89357C31.9739 8.17653 32.0383 8.45713 32.2724 8.65729C32.6763 9.00206 33.832 9.08469 34.4157 8.79466C34.5286 8.73855 34.6441 8.63647 34.7189 8.56562C34.7752 8.51231 34.8644 8.37269 34.8807 8.41285C34.8499 8.56781 34.8041 8.71148 34.7999 8.88633H35.5884C35.7405 7.23948 36.2102 5.83295 36.5589 4.33472H35.6894V4.33477H35.6893ZM33.7484 8.53505C33.1632 8.54453 32.8721 8.27088 32.8587 7.81718C32.8354 7.02261 33.2968 6.13987 34.2337 6.06069C34.6698 6.02387 34.9857 6.10047 35.3052 6.18294C35.0118 7.07548 35.1177 8.51285 33.7484 8.53505ZM26.2473 5.70942C26.2046 5.8909 26.1388 6.0551 26.0856 6.22869C26.5987 6.13148 28.1961 5.83355 28.3501 6.35088C28.4012 6.52272 28.313 6.70535 28.249 6.83965C26.8045 6.73631 25.6271 6.91762 25.3173 7.69499C25.1099 8.2157 25.3405 8.72809 25.7823 8.8711C26.6333 9.14655 27.6683 8.83105 28.0266 8.39768C27.9894 8.54765 27.9541 8.69932 27.9661 8.88639H28.7141C28.7221 8.34513 28.8263 7.90705 28.9365 7.42003C29.0303 7.00529 29.2071 6.59472 29.1791 6.22869C29.1147 5.39042 27.2764 5.68694 26.2473 5.70942ZM27.6626 8.27537C27.2146 8.60672 25.957 8.70085 26.0856 7.90885C26.1924 7.25099 27.1406 7.11121 28.168 7.20617C28.0917 7.56606 28.004 8.02294 27.6626 8.27537Z" fill="red"/>
<defs>
<linearGradient id="paint0_linear_1414_314" x1="19.9999" y1="0.424683" x2="19.9999" y2="13.5754" gradientUnits="userSpaceOnUse">
<stop stop-color="white"/>
<stop offset="1" stop-color="white" stop-opacity="0.75"/>
</linearGradient>
</defs>
</svg>
