<svg width="40" height="25" viewBox="0 0 40 25" fill="none" xmlns="http://www.w3.org/2000/svg">
<g clip-path="url(#clip0_1420_322)">
<path d="M39.7329 12.9071C39.7329 14.6607 36.9642 16.0887 33.5641 16.0887H0V3.48771C0 1.73409 2.76867 0.306152 6.16879 0.306152H39.7329V12.9071Z" fill="white"/>
<path d="M28.8037 9.67538H31.3538C31.4267 9.67538 31.5967 9.66285 31.6695 9.66285C32.1553 9.61275 32.5681 9.38728 32.5681 9.07414C32.5681 8.77352 32.1553 8.54806 31.6695 8.48543C31.5967 8.4729 31.4509 8.4729 31.3538 8.4729H28.8037V9.67538Z" fill="url(#paint0_linear_1420_322)"/>
<path d="M31.0626 1.37085C28.634 1.37085 26.6425 2.38544 26.6425 3.65055V6.01792H32.8841C33.0298 6.01792 33.1998 6.01792 33.3213 6.03045C34.7299 6.06803 35.7742 6.4438 35.7742 7.09514C35.7742 7.6087 35.0699 8.0471 33.7584 8.13478V8.15983C35.1913 8.20994 36.2842 8.62329 36.2842 9.2621C36.2842 9.95102 35.0699 10.402 33.467 10.402H26.6182V15.0365H33.1027C35.5313 15.0365 37.5228 14.0219 37.5228 12.7568V1.37085H31.0626Z" fill="url(#paint1_linear_1420_322)"/>
<path d="M32.2524 7.24547C32.2524 6.94485 31.8395 6.74444 31.3538 6.70686C31.3052 6.70686 31.1838 6.69434 31.1109 6.69434H28.8037V7.79661H31.1109C31.1838 7.79661 31.3295 7.79661 31.3538 7.78408C31.8395 7.7465 32.2524 7.54609 32.2524 7.24547V7.24547Z" fill="url(#paint2_linear_1420_322)"/>
<path d="M6.63048 1.37085C4.20182 1.37085 2.21032 2.38544 2.21032 3.65055V9.27463C3.44894 9.58778 4.73613 9.78819 6.02332 9.78819C7.55337 9.78819 8.37911 9.31221 8.37911 8.66087V6.0054H12.1678V8.64834C12.1678 9.67546 10.9292 10.5147 6.72763 10.5147C4.17753 10.5147 2.18604 10.2266 2.18604 10.2266V15.024H8.67055C11.0992 15.024 13.0907 14.0094 13.0907 12.7443V1.37085H6.63048Z" fill="url(#paint3_linear_1420_322)"/>
<path d="M18.8464 1.37085C16.4178 1.37085 14.4263 2.38544 14.4263 3.65055V6.63169C15.5435 6.14318 17.4864 5.83004 20.6193 5.90519C22.2951 5.94277 24.0923 6.18076 24.0923 6.18076V7.14525C23.1937 6.90726 22.1251 6.69432 20.7408 6.64421C18.3607 6.55653 16.9278 7.15777 16.9278 8.20994C16.9278 9.27463 18.3607 9.87587 20.7408 9.77567C22.1251 9.72556 23.1937 9.5001 24.0923 9.27463V10.2391C24.0923 10.2391 22.3194 10.4771 20.6193 10.5147C17.4864 10.5898 15.5435 10.2767 14.4263 9.78819V15.049H20.9108C23.3394 15.049 25.3309 14.0344 25.3309 12.7693V1.37085H18.8464Z" fill="url(#paint4_linear_1420_322)"/>
</g>
<defs>
<linearGradient id="paint0_linear_1420_322" x1="26.6381" y1="9.07564" x2="37.552" y2="9.07564" gradientUnits="userSpaceOnUse">
<stop stop-color="#007940"/>
<stop offset="0.229" stop-color="#00873F"/>
<stop offset="0.743" stop-color="#40A737"/>
<stop offset="1" stop-color="#5CB531"/>
</linearGradient>
<linearGradient id="paint1_linear_1420_322" x1="26.6381" y1="8.19816" x2="37.5527" y2="8.19816" gradientUnits="userSpaceOnUse">
<stop stop-color="#007940"/>
<stop offset="0.229" stop-color="#00873F"/>
<stop offset="0.743" stop-color="#40A737"/>
<stop offset="1" stop-color="#5CB531"/>
</linearGradient>
<linearGradient id="paint2_linear_1420_322" x1="26.6378" y1="7.24384" x2="37.552" y2="7.24384" gradientUnits="userSpaceOnUse">
<stop stop-color="#007940"/>
<stop offset="0.229" stop-color="#00873F"/>
<stop offset="0.743" stop-color="#40A737"/>
<stop offset="1" stop-color="#5CB531"/>
</linearGradient>
<linearGradient id="paint3_linear_1420_322" x1="2.20522" y1="8.19817" x2="13.2879" y2="8.19817" gradientUnits="userSpaceOnUse">
<stop stop-color="#1F286F"/>
<stop offset="0.475" stop-color="#004E94"/>
<stop offset="0.826" stop-color="#0066B1"/>
<stop offset="1" stop-color="#006FBC"/>
</linearGradient>
<linearGradient id="paint4_linear_1420_322" x1="14.3634" y1="8.19817" x2="25.1274" y2="8.19817" gradientUnits="userSpaceOnUse">
<stop stop-color="#6C2C2F"/>
<stop offset="0.173" stop-color="#882730"/>
<stop offset="0.573" stop-color="#BE1833"/>
<stop offset="0.859" stop-color="#DC0436"/>
<stop offset="1" stop-color="#E60039"/>
</linearGradient>
<clipPath id="clip0_1420_322">
<rect width="40" height="25" fill="white"/>
</clipPath>
</defs>
</svg>
